<?xml version="1.0" encoding="UTF-8"?>
<svg id="Layer_1" data-name="Layer 1" xmlns="http://www.w3.org/2000/svg" viewBox="0 0 31 32.26">
  <defs>
    <style>
      .cls-1 {
        fill: #41af52;
        stroke-width: 0px;
      }
    </style>
  </defs>
  <path class="cls-1" d="M28.74,10.64c-1.17-.31-2.44.17-3.16,1.19-1.86-.67-3.73-1.34-5.6-2v-.13c0-.4,0-.81-.11-1.22-.1-.38-.26-.74-.41-1.08-.01-.03-.02-.05-.04-.08l.71-.48c.7-.47,1.4-.93,2.1-1.4.53.42,1.17.64,1.84.61.88-.02,1.68-.39,2.25-1.05.56-.65.81-1.51.7-2.36-.2-1.52-1.56-2.66-3.1-2.59-1.58.07-2.84,1.32-2.86,2.86,0,.27.03.54.07.82,0,.02,0,.04,0,.06l-.7.47c-.79.52-1.58,1.05-2.41,1.57-1.05-.72-2.23-.94-3.43-.64-.41.1-.8.27-1.18.43-.06.02-.11.05-.17.07l-.09-.11c-.3-.38-.61-.77-.94-1.17.76-1.47.23-3.23-1.24-4.04-1.11-.62-2.51-.45-3.48.42-.92.83-1.24,2.25-.76,3.38.53,1.24,1.73,1.98,3.01,1.86.33-.03.64-.12.93-.21.03,0,.06-.02.09-.03l1.02,1.28-.63,1.5h-.98c-1.41,0-2.85,0-4.29,0-.51-1.45-2.07-2.31-3.55-1.91-1.58.43-2.52,1.94-2.19,3.52.28,1.3,1.42,2.28,2.73,2.35,1.36.08,2.56-.72,3.01-1.99,1.37,0,2.74,0,4.11,0h1.18s.21.68.21.68l-1.64,1.33c-1.78,1.45-3.56,2.89-5.34,4.33-1.05-.53-2.13-.46-3.12.22-.63.43-1.03,1.06-1.26,1.98-.01.04-.01.08-.01.12v.76c0,.06.01.12.03.17,0,0,.03.09.04.09.01.04.03.07.04.11.24.87.78,1.52,1.61,1.94.4.2.84.3,1.28.3.51,0,1.02-.13,1.49-.39.88-.49,1.46-1.34,1.54-2.29.05-.55-.03-1.08-.24-1.58l6.05-4.92c.12-.1.24-.2.36-.3.28-.23.54-.45.81-.64.02-.02.04-.03.07-.05v4.88s0,1.55,0,1.55c-.56-.33-1.16-.5-1.81-.53-.39-.02-.67.08-.88.27-.2.2-.3.47-.3.84v8.7c0,.37.14.69.42.97.77.76,1.54,1.53,2.3,2.3l.08.08c.14.14.27.28.4.42l.19.21c.09.1.22.15.35.15h1.41c.19,0,.33-.14.41-.31s.03-.41-.08-.55c-.06-.07-.12-.15-.18-.21l-.27-.27c-.99-.99-1.98-1.98-2.97-2.96-.06-.06-.07-.09-.07-.16,0-1.99,0-3.98,0-5.97v-1.25c.55.31.95.89.97,1.48.02.77.02,1.54.03,2.31v1.14c0,.15.01.31.04.46.08.46.42.76.89.79.48.04.86-.22,1-.67.06-.21.07-.42.07-.58v-10.48s0-2.15,0-2.15c0-.37,0-.74,0-1.11,0-.22.17-.42.38-.45.26-.04.5.08.57.3.04.12.04.29.04.43,0,1.83,0,3.66,0,5.49v1.87s0,1.17,0,1.17c0,.42.11.72.32.93.12.12.38.25.7.26.47,0,.97-.32.98-1.18v-.29c0-.18,0-.36,0-.54,0-.15.06-.26.19-.35.15-.12.33-.15.5-.07.16.07.27.21.29.4.02.2.02.4.02.6,0,.17,0,.34.01.51.02.32.18.6.43.77.24.17.55.21.84.12.44-.14.7-.5.71-1v-.39c0-.18,0-.36,0-.54,0-.27.19-.48.45-.5.3-.01.5.14.53.41.03.21.03.43.03.65,0,.12,0,.24,0,.36.02.64.42,1.06,1.01,1.05.57-.01.96-.44.97-1.06,0-.13,0-.26,0-.4,0-.18,0-.37,0-.55.01-.26.2-.38.27-.42.08-.04.27-.11.48.02.15.1.26.24.26.62v11.79c0,.27.22.49.49.49h1c.13,0,.25-.05.35-.14s.14-.22.14-.35v-11.77c0-.11,0-.22,0-.33-.07-1.28-1.06-2.27-2.34-2.35-.6-.03-1.15.13-1.63.49-1.02-.73-2.18-.59-3,0-.6-.44-1.27-.59-2-.44v-1.37c0-1.36,0-2.72,0-4.09,0,0,0,0,0,0l.48.34c.11.08.25.11.39.08.13-.03.25-.12.32-.24l.19-.33,5.61,2c.05.63.28,1.2.67,1.69.82,1,2.2,1.35,3.42.87,1.17-.46,1.93-1.67,1.86-2.95-.08-1.29-.98-2.38-2.25-2.72ZM28.02,14.54h0c-.26,0-.51-.11-.7-.3-.19-.19-.3-.44-.3-.7,0-.54.47-1.01,1-1.01h0c.53,0,1,.47,1,1,0,.25-.11.5-.3.7-.19.19-.45.31-.71.31ZM23.02,3.06c0-.55.45-.99,1-.99h0c.27,0,.52.11.71.3.19.19.29.44.29.7,0,.55-.45.99-1.01.99h0c-.27,0-.52-.1-.71-.29-.19-.19-.29-.44-.29-.7ZM8.55,3.05c0-.55.49-1.03,1.01-.99.27,0,.52.11.71.3.19.19.29.44.28.69,0,.54-.46.99-1.01.99h0c-.27,0-.52-.11-.71-.3-.19-.19-.29-.44-.29-.69ZM4.05,9.55c0,.55-.44,1-.99,1.01h0c-.26,0-.51-.1-.7-.29-.19-.19-.3-.44-.3-.71,0-.55.44-1.01.99-1.01h0c.26,0,.51.1.7.29.19.19.29.44.29.71ZM4.05,19.52c0,.56-.43,1-.98,1.01h0c-.55,0-.99-.43-1-.99,0-.55.44-1,.99-1.01h.01c.25,0,.5.1.68.28.19.19.3.44.3.71ZM5.93,8.74l-.46.16h0s.4-.25.4-.25c.03.03.05.06.06.09ZM16.57,9.54c-.94-.41-1.89-.26-2.67.42-.24.21-.42.46-.55.74-.37-.7-.4-1.5-.07-2.22.35-.76,1.03-1.27,1.86-1.41.77-.12,1.54.11,2.1.63.55.52.83,1.25.76,2.01-.03.29-.13.6-.23.93,0,0,0,.02,0,.03-.25-.5-.64-.9-1.19-1.14Z"/>
</svg>