<?xml version="1.0" encoding="UTF-8"?>
<svg id="Layer_1" data-name="Layer 1" xmlns="http://www.w3.org/2000/svg" viewBox="0 0 26.87 26.87">
  <defs>
    <style>
      .cls-1 {
        fill: #41af52;
        stroke-width: 0px;
      }
    </style>
  </defs>
  <path class="cls-1" d="M26.05,10.16c-.19-.48-.57-.75-1.15-.81-.16-.02-.31-.05-.47-.09l-.14-.03c-.07-.02-.15-.11-.2-.23-.05-.12-.06-.24-.02-.3.08-.12.15-.23.23-.34.09-.14.19-.28.28-.43.22-.35.25-.72.06-1.07-.35-.68-1-1.05-1.75-1.02v-.6c0-.39,0-.78,0-1.16-.01-1.04-.67-1.68-1.71-1.68-1.65,0-3.3,0-4.96,0-.08,0-.19,0-.3.03-.26.07-.4.26-.39.52,0,.25.15.42.4.48.1.02.2.03.32.03.73,0,1.46,0,2.18,0h.76v1.07c-.71.15-.87.75-.92,1.2-.02.15-.05.29-.08.44l-.02.1c-.02.07-.11.16-.23.21-.12.05-.25.06-.31.02-.1-.06-.19-.13-.29-.19-.17-.11-.34-.23-.51-.33-.42-.26-.9-.21-1.27.13-.18.16-.35.33-.49.49-.41.42-.46.91-.13,1.41.1.15.19.3.29.44l.17.25c.05.08.05.22,0,.34-.05.12-.13.21-.22.23-.15.03-.3.06-.45.09-.14.03-.27.05-.41.08-.52.11-.84.47-.87.99-.02.27-.02.55,0,.82.03.5.34.85.84.97.2.04.39.08.59.12l.32.06c.07.02.16.11.21.23.05.12.06.25.01.32-.07.1-.13.2-.2.3-.11.16-.21.31-.31.47-.27.44-.23.91.12,1.3.14.15.29.31.5.51.41.39.9.43,1.38.12.13-.08.26-.17.39-.26.12-.08.24-.16.36-.24.07-.04.09-.04.09-.04.25.03.41.18.46.44.05.22.09.44.14.67.12.58.52.92,1.14.93.11,0,.22,0,.33,0,.1,0,.2,0,.31,0,.5-.02.88-.32,1-.8.06-.23.1-.47.15-.7l.05-.23c.02-.09.11-.18.23-.23.13-.05.26-.05.34,0l.25.17c.17.11.33.22.5.33.44.27.93.23,1.31-.13.16-.15.32-.31.47-.47.41-.42.46-.91.13-1.41l-.05-.08c-.13-.2-.26-.41-.41-.61-.06-.08-.05-.13-.01-.27.06-.23.19-.33.44-.34.08,0,.16-.03.24-.04.06-.02.12-.03.17-.04.56-.05.93-.33,1.12-.82v-1.22s0-.05,0-.05ZM20.28,3.44h.27c.28,0,.55,0,.82,0,.28,0,.48.21.49.49.01.88,0,1.75,0,2.49,0,.02-.04.08-.07.1-.02,0-.11,0-.25-.07-.14-.07-.21-.15-.22-.18l-.07-.37c-.04-.19-.08-.38-.12-.56-.09-.41-.35-.69-.77-.81-.02,0-.06-.03-.07-.04,0-.29,0-.58,0-.88v-.16ZM25.02,10.8c-.01.09-.02.18-.01.26,0,.03-.07.09-.09.1-.32.08-.68.16-1.11.23-.27.05-.44.19-.53.45-.09.25-.19.49-.29.71-.12.24-.1.46.05.67.1.14.2.29.29.44.11.17.22.33.33.5.06.09.06.12-.03.21q-.4.41-.9.08l-.17-.11c-.14-.09-.28-.19-.42-.28-.19-.13-.39-.14-.63-.03-.23.11-.47.21-.7.29-.27.09-.42.27-.47.55-.05.29-.11.57-.17.86-.01.06-.02.12-.03.16-.01.07-.03.15-.04.16-.03.01-.13.02-.25.01h-.18c-.13,0-.26,0-.28,0,0-.02-.02-.08-.03-.14s-.02-.13-.04-.22c-.06-.28-.12-.57-.17-.85-.04-.25-.19-.42-.45-.51-.24-.08-.48-.18-.7-.29-.11-.05-.21-.08-.31-.08-.12,0-.25.04-.36.12-.15.1-.29.2-.44.29-.17.11-.34.23-.51.35-.09.06-.1.05-.15,0-.1-.11-.19-.19-.26-.26-.08-.08-.17-.16-.17-.19,0-.02.06-.11.12-.19.05-.07.12-.17.19-.29.12-.19.25-.38.38-.56.13-.19.15-.41.06-.63-.14-.31-.24-.55-.32-.78s-.24-.36-.48-.4c-.16-.03-.32-.06-.47-.1-.22-.05-.45-.09-.67-.13-.08-.02-.1-.03-.09-.12,0-.15,0-.27,0-.36,0-.11,0-.22.01-.24.02-.02.13-.04.24-.06.09-.02.2-.04.34-.07l.13-.03c.18-.04.36-.08.54-.11.23-.04.39-.17.48-.41.1-.26.2-.51.31-.76.1-.23.09-.44-.06-.65-.1-.15-.21-.31-.31-.46-.11-.16-.21-.32-.32-.47-.06-.09-.06-.13.02-.2.11-.1.19-.18.25-.25.08-.08.15-.16.18-.16.02,0,.1.06.18.11.07.05.17.12.29.19.2.12.39.25.58.39.2.14.4.16.63.05.22-.1.49-.22.75-.31.24-.09.38-.25.43-.49.03-.15.06-.3.09-.46.04-.21.09-.43.13-.65.02-.12.04-.13.16-.14.57,0,.57,0,.7.57.05.21.09.43.13.64.05.26.19.43.43.52.26.09.52.21.75.31.23.1.43.08.63-.05.13-.09.26-.17.39-.26.19-.12.38-.25.56-.38.09-.06.12-.06.2.02.1.1.18.18.24.24.08.08.16.16.17.18,0,.02-.06.11-.12.2-.05.07-.11.16-.18.27-.13.2-.26.39-.39.58-.14.2-.16.4-.05.63.11.24.21.49.3.73l.02.05c.09.22.24.35.46.39.25.05.5.1.75.15l.37.08s.04,0,.06,0c.12.09.11.2.09.39Z"/>
  <path class="cls-1" d="M9.57,4.48c.76,0,1.52,0,2.28,0s1.52,0,2.28,0c.43,0,.77-.16.97-.45.2-.29.22-.67.07-1.08-.06-.15-.12-.3-.18-.45-.1-.25-.2-.5-.29-.75-.17-.49-.44-.79-.83-.94h-3.95s-.04,0-.04,0c-.4.13-.67.41-.84.87-.09.26-.2.52-.3.77-.07.16-.13.33-.2.49-.16.4-.13.79.07,1.08.2.29.54.45.96.45ZM9.53,3.28l.17-.43c.12-.29.23-.57.34-.86.04-.11.09-.15.2-.15h0c1.07,0,2.15,0,3.22,0h0c.1,0,.14.03.18.12.1.26.21.52.31.78.08.19.15.38.23.58.03.07.03.1.04.11-.01,0-.05.01-.13.01-.53,0-1.07,0-1.6,0h-.64s-.63,0-.63,0c-.53,0-1.06,0-1.59,0-.11,0-.15,0-.15,0,0-.02,0-.06.05-.16Z"/>
  <path class="cls-1" d="M22.38,16.08h0c-.27,0-.48.2-.51.47,0,.07,0,.13,0,.2v1.95c0,1.89,0,3.78,0,5.68,0,.3-.08.47-.27.56-.12.05-.27.08-.47.08-6.18,0-12.35,0-18.53,0-.14,0-.24,0-.34-.03-.2-.04-.33-.17-.38-.38-.02-.09-.03-.2-.03-.34,0-6.71,0-13.41,0-20.12,0-.09,0-.23.04-.36.05-.2.18-.33.36-.35.3-.02.6-.02.92-.01.09,0,.19,0,.28,0v.2c0,6.17,0,12.34,0,18.51v.05c0,.15,0,.29.04.44.13.5.53.78,1.14.78h10.72c.33,0,.7-.06.71-.5,0-.15-.04-.27-.12-.36-.11-.12-.3-.17-.59-.17H4.76s-.05,0-.08,0c-.03,0-.07,0-.08,0-.06-.03-.11-.07-.12-.07-.01-.27-.01-.55,0-.82v-.17h14.74v.77c0,.12,0,.25-.01.27-.03.02-.15.02-.26.02h-.63c-.37,0-.75,0-1.13,0-.35,0-.59.21-.59.51,0,.14.04.26.14.36.11.11.26.17.44.17h.37c.55,0,1.12.01,1.69,0,.2,0,.43-.08.62-.21.38-.25.42-.67.42-.96v-3.91c0-.06,0-.13-.01-.19-.05-.3-.24-.49-.52-.49-.01,0-.02,0-.04,0-.28.02-.47.23-.49.53,0,.15,0,.3,0,.45v1.63s-14.73,0-14.73,0v-3.68c.11,0,.23,0,.34,0,.35,0,.71,0,1.07,0,.3,0,.53.1.73.36.23.31.48.61.72.91.18.22.35.44.53.66.38.49.86.72,1.49.72.76-.01,1.54,0,2.29,0h.27s0,0,.01,0c.53,0,.98-.2,1.33-.61l1.18-1.36c.24-.27.47-.54.7-.82.17-.2.2-.43.07-.64-.13-.21-.34-.3-.57-.22-.15.05-.28.17-.36.26-.58.65-1.19,1.35-1.78,2.05-.17.21-.37.3-.64.3h0c-.83,0-1.68,0-2.52,0h0c-.28,0-.48-.1-.64-.32-.42-.55-.85-1.08-1.25-1.57-.15-.19-.3-.33-.45-.45-.35-.27-.76-.29-1.04-.3-.37,0-.74,0-1.11,0h-.35v-4.23h7.4c.09,0,.19,0,.28-.01.25-.03.41-.2.44-.47.03-.24-.17-.5-.42-.54-.08-.01-.16-.01-.24-.01h-7.46V3.44h.98c.69,0,1.38,0,2.06,0,.21,0,.38-.06.49-.18.09-.09.14-.22.14-.36,0-.31-.25-.52-.62-.52h-1.11c-1.32,0-2.68,0-4.02,0-.95,0-1.61.69-1.61,1.65,0,6.79,0,13.57,0,20.36,0,.99.66,1.66,1.65,1.66,2.59,0,5.18,0,7.78,0,3.67,0,7.35,0,11.02,0,.13,0,.28,0,.42-.04.79-.19,1.23-.79,1.23-1.7,0-2.51,0-5.03,0-7.54,0-.08,0-.16-.01-.24-.04-.28-.24-.46-.51-.46Z"/>
  <path class="cls-1" d="M9.74,6.59c0-.16-.06-.29-.17-.38-.11-.09-.26-.14-.44-.14-1.17,0-2.34,0-3.51,0-.37,0-.61.2-.61.52,0,.14.05.26.14.35.11.11.28.17.5.17.41,0,.82,0,1.24,0h1.02c.18,0,.35,0,.53,0,.23,0,.47,0,.7,0,.37,0,.61-.21.61-.52Z"/>
  <path class="cls-1" d="M7.22,7.65h-.36s-.37,0-.37,0c-.29,0-.58,0-.88,0-.19,0-.36.06-.47.18-.09.09-.14.22-.14.35,0,.31.24.51.59.51.42,0,.83,0,1.25,0s.83,0,1.24,0c.36,0,.58-.19.58-.51,0-.15-.04-.27-.14-.37-.11-.11-.26-.16-.46-.17-.29,0-.58,0-.86,0Z"/>
  <path class="cls-1" d="M18.97,8.68c-.85.28-1.47,1.17-1.48,2.11,0,1.2.97,2.22,2.18,2.27,0,0,.02,0,.03,0,.3,0,.52-.18.55-.46.03-.29-.12-.5-.43-.57-.08-.02-.15-.03-.23-.04-.32-.03-.62-.2-.82-.47-.2-.27-.28-.6-.22-.91.1-.55.42-.88.95-.99.49-.11.91.05,1.23.47.29.39.3.91.03,1.37-.31.51-.03.75.1.83.16.1.48.19.77-.26.52-.79.49-1.85-.07-2.57-.64-.82-1.61-1.11-2.59-.78Z"/>
</svg>