<?xml version="1.0" encoding="UTF-8"?>
<svg id="Layer_1" data-name="Layer 1" xmlns="http://www.w3.org/2000/svg" viewBox="0 0 26.87 26.87">
  <defs>
    <style>
      .cls-1 {
        fill: #41af52;
        stroke-width: 0px;
      }
    </style>
  </defs>
  <path class="cls-1" d="M24.83,23.13c-.49-.5-.98-1-1.49-1.48-.17-.16-.23-.33-.23-.56,0-5.37,0-10.75,0-16.12,0-.35-.08-.64-.35-.88-1.09-.96-2.17-1.92-3.25-2.89-.29-.26-.6-.38-1-.38-3.81,0-7.61.02-11.42,0-.86,0-1.62.55-1.52,1.53.03.29-.06.39-.36.36-.85-.1-1.54.52-1.53,1.51.03,3.39.01,6.77.01,10.16s.02,6.79-.01,10.19c0,.94.67,1.5,1.5,1.5,3.68-.02,7.36-.01,11.04-.01,1.23,0,2.45,0,3.68,0,.63,0,1.13-.39,1.29-.98.05-.2.02-.41.04-.61,0-.09-.08-.23.07-.27.12-.04.22.02.31.12.33.34.67.68,1.01,1.01.67.66,1.62.68,2.24.06.62-.62.6-1.58-.05-2.24ZM19.38,2.33c.7.61,1.35,1.19,2.05,1.81-.61,0-1.15,0-1.69,0-.24,0-.36-.17-.37-.4,0-.44,0-.89,0-1.4ZM19.68,25.11c-4.81,0-9.62,0-14.42,0-.52,0-.61-.09-.61-.6v-10.16c0-3.39,0-6.77,0-10.16,0-.48.42-.74.86-.55.06.02.07.06.07.11,0,.08,0,.16,0,.23,0,6.23.01,12.46-.01,18.69,0,.99.68,1.53,1.53,1.53,4.29-.02,8.58,0,12.88-.02.25,0,.35.03.34.32-.03.54-.09.62-.63.62ZM20.23,23.24c-4.37,0-8.74,0-13.11,0-.5,0-.6-.09-.6-.59,0-6.76,0-13.53,0-20.29,0-.51.09-.6.59-.6,3.68,0,7.36,0,11.04-.01.23,0,.31.04.3.3-.02.56-.01,1.13,0,1.69,0,.8.56,1.34,1.37,1.35.72,0,1.44,0,2.16,0,.16,0,.21.04.21.21,0,5.02,0,10.05,0,15.07,0,.02,0,.03-.03.11-.32-.33-.61-.63-.9-.92-.37-.37-.7-.39-1.05,0-.2.21-.31.21-.49,0-.16-.2-.47-.35-.52-.57-.04-.2.26-.4.4-.6,2.6-3.88.26-9.14-4.37-9.82-3.55-.52-6.85,2.1-7.18,5.68-.31,3.34,1.96,6.31,5.28,6.85,1.83.3,3.49-.15,4.95-1.3.15-.12.23-.15.37.01.16.19.35.37.53.54.09.09.1.15,0,.23-.04.03-.07.07-.1.1-.39.4-.39.69.01,1.1.41.41.83.83,1.24,1.24.07.07.13.14.24.25h-.33ZM14.39,20.21c-2.96,0-5.4-2.39-5.41-5.32-.01-3,2.4-5.43,5.4-5.43,2.94,0,5.35,2.42,5.35,5.38,0,2.93-2.41,5.36-5.34,5.37ZM24.09,24.79c-.2.12-.41.12-.61,0-.08-.05-.15-.12-.22-.19-1.07-1.07-2.14-2.15-3.22-3.21-.15-.15-.18-.24,0-.38.19-.16.37-.35.54-.53.11-.12.17-.1.28,0,1.11,1.12,2.23,2.23,3.34,3.34.12.12.19.27.2.44,0,.23-.11.41-.3.53Z"/>
  <path class="cls-1" d="M9.06,7.35c.09.01.17,0,.26,0,1.73,0,3.47,0,5.2,0s3.47,0,5.2,0c.09,0,.18,0,.26,0,.23-.04.39-.25.38-.48-.02-.24-.16-.39-.39-.44-.08-.02-.17,0-.26,0-3.46,0-6.91,0-10.37,0-.09,0-.18,0-.26,0-.24.05-.38.19-.39.44-.01.23.15.44.38.48Z"/>
  <path class="cls-1" d="M12.29,5.49c.74,0,1.48,0,2.22,0s1.5,0,2.25,0c.37,0,.57-.18.57-.47,0-.29-.21-.46-.55-.46-1.5,0-3,0-4.5,0-.35,0-.55.17-.55.46,0,.3.2.47.57.47Z"/>
  <path class="cls-1" d="M16.58,12.52c-1.06,1.19-2.11,2.39-3.16,3.59-.16.19-.24.16-.38,0-.34-.4-.69-.79-1.04-1.18-.21-.23-.46-.25-.67-.08-.22.18-.24.45-.02.7.51.59,1.03,1.17,1.54,1.75.1.11.22.19.39.18.2.02.33-.12.45-.26,1.19-1.36,2.39-2.71,3.58-4.07.33-.37.36-.62.12-.83-.23-.21-.5-.14-.81.21Z"/>
</svg>