<?xml version="1.0" encoding="UTF-8"?>
<svg id="Layer_1" data-name="Layer 1" xmlns="http://www.w3.org/2000/svg" viewBox="0 0 29.35 31.51">
  <defs>
    <style>
      .cls-1 {
        fill: #41af52;
        stroke-width: 0px;
      }
    </style>
  </defs>
  <path class="cls-1" d="M26.19,1.81c-.62,0-1.25,0-1.87,0h-.7c-.06,0-.13,0-.28.01h-.14s0-.23,0-.23c0-.9-.66-1.58-1.53-1.59-.43.02-.83.15-1.12.44-.3.29-.46.7-.46,1.14,0,.08,0,.16,0,.24h-10.66l-.16.02c0-.09,0-.17,0-.26C9.26.68,8.59,0,7.7,0h-.01c-.88,0-1.52.67-1.53,1.58,0,.07,0,.15,0,.22h-2.9C1.34,1.81,0,3.14,0,5.05v4.82S0,28.33,0,28.33c0,1.84,1.33,3.18,3.16,3.18,3.32,0,6.63,0,9.95,0,4.36,0,8.72,0,13.08,0,1.8,0,3.15-1.36,3.15-3.16V4.97c0-1.79-1.35-3.15-3.15-3.16ZM26.85,10.45v17.8c0,.56-.21.77-.77.77H3.23c-.51,0-.74-.23-.74-.73V10.45s24.36,0,24.36,0ZM9.41,2.43s0,0,0,0h0s0,0,0,0ZM6.15,4.27v.14c0,.91.66,1.61,1.52,1.62h.03c.41,0,.8-.15,1.08-.43.31-.3.48-.71.48-1.17,0-.05,0-.1,0-.15h10.81c0,.05,0,.1,0,.15,0,.91.67,1.6,1.55,1.61h0c.88,0,1.55-.69,1.55-1.6v-.14s1.19,0,1.19,0h1.71c.53,0,.75.23.75.75v2.87H2.49v-2.86c0-.53.23-.76.77-.76h2.47c.07,0,.14,0,.31-.02h.12Z"/>
  <path class="cls-1" d="M18.05,21.39c-.54.15-.98.03-1.42-.41-.17-.17-.43-.4-.76-.53-.67-.25-1.47.01-1.9.63-.43.62-.4,1.44.08,2.05.77.97,1.98,1.59,3.32,1.69.13,0,.25.01.38.01,1.2,0,2.34-.43,3.16-1.2.79-.74,1.23-1.78,1.22-2.85-.01-1.02-.43-1.95-1.17-2.61-.2-.18-.43-.33-.65-.46l.11-.09c.33-.27.65-.53.96-.82.58-.54.75-1.26.46-1.98-.29-.73-.9-1.13-1.7-1.14-1.3,0-2.59,0-3.89,0h-.58c-.46,0-.85.14-1.17.42-.51.45-.69,1.18-.46,1.84.24.66.84,1.08,1.58,1.08.25,0,.49,0,.74,0-.14.11-.27.23-.41.34-.4.34-.6.72-.63,1.15-.03.47.11.9.4,1.23.3.34.73.54,1.24.56.43.02.83.04,1.2.13.18.04.32.11.29.48-.02.23-.17.4-.42.47Z"/>
  <path class="cls-1" d="M9.52,17.95v.44s0,4.45,0,4.45c0,.19,0,.38.03.57.08.63.41.96.67,1.12.34.21.7.32,1.08.32.3,0,.61-.07.91-.21.59-.27.89-.81.9-1.59,0-2.58,0-5.16,0-7.73,0-.62-.3-1.19-.8-1.52-.49-.33-1.08-.38-1.63-.16-.79.32-1.61.7-2.59,1.21-.81.42-1.11,1.41-.67,2.27.4.78,1.29,1.13,2.11.83Z"/>
</svg>