<?xml version="1.0" encoding="UTF-8"?>
<svg id="Layer_1" data-name="Layer 1" xmlns="http://www.w3.org/2000/svg" viewBox="0 0 26.87 26.87">
  <defs>
    <style>
      .cls-1 {
        fill: #41af52;
        stroke-width: 0px;
      }
    </style>
  </defs>
  <path class="cls-1" d="M26.12,20.33v4.41c-.2.38-.48.59-.93.59-7.83,0-15.67,0-23.5,0-.6,0-.92-.32-.92-.91,0-1.25,0-2.51,0-3.76,0-.61.32-.93.93-.94.48,0,.96,0,1.44,0,.09,0,.17,0,.26-.01v-8.38c-.59,0-1.16,0-1.73,0-.58,0-.9-.33-.9-.91,0-.88,0-1.75,0-2.63,0-.43.18-.71.57-.89,3.85-1.73,7.7-3.46,11.54-5.21.4-.18.75-.18,1.15,0,3.77,1.71,7.54,3.41,11.31,5.11.33.15.63.31.79.66v3.27c-.21.46-.57.64-1.08.6-.39-.03-.77,0-1.16,0-.13,0-.26,0-.39,0v8.4c.53,0,1.05.02,1.56,0,.5-.02.87.15,1.06.63ZM2.39,9.67h.39c7.1,0,14.2,0,21.3,0,.04,0,.08,0,.12,0,.21.03.3-.04.28-.27-.02-.3-.02-.61,0-.92.01-.22-.06-.32-.26-.4-3.52-1.58-7.04-3.16-10.55-4.75-.16-.07-.3-.08-.46,0-1.2.55-2.4,1.09-3.61,1.63-2.34,1.05-4.67,2.1-7.01,3.16-.08.04-.19.12-.19.18-.02.44,0,.89,0,1.37ZM24.47,21.37H2.39c0,.11,0,.19,0,.28,0,.57,0,1.14,0,1.71q0,.32.33.32c7.15,0,14.3,0,21.45,0,.1,0,.19,0,.3-.01v-2.3ZM12.59,11.31c-.91,0-1.8,0-2.68,0-.24,0-.3.06-.3.3,0,2.6,0,5.2,0,7.8,0,.09,0,.18,0,.28h2.98v-8.38ZM17.23,19.69v-8.36h-2.95v8.36h2.95ZM7.96,19.69v-8.37h-2.89v8.37h2.89ZM21.81,11.31c-.92,0-1.8,0-2.68,0-.2,0-.25.06-.25.25,0,2.63,0,5.27,0,7.9,0,.19.05.26.25.25.83-.01,1.65,0,2.48,0,.06,0,.13-.01.2-.02v-8.38Z"/>
</svg>