<?xml version="1.0" encoding="UTF-8"?>
<svg id="Layer_1" data-name="Layer 1" xmlns="http://www.w3.org/2000/svg" viewBox="0 0 31.18 31.2">
  <defs>
    <style>
      .cls-1 {
        fill: #41af52;
        stroke-width: 0px;
      }
    </style>
  </defs>
  <path class="cls-1" d="M31.18,15.36v.55c-.12.2-.22.41-.35.59-.16.22-.36.41-.53.62-.57.7-1.26,1.13-2.19,1.1-.27-.01-.54,0-.83,0,0,.15,0,.26,0,.37,0,3.3,0,6.6,0,9.9,0,1.61-1.1,2.71-2.72,2.71-5.99,0-11.98,0-17.97,0-1.61,0-2.71-1.11-2.71-2.72,0-3.3,0-6.6,0-9.9,0-.12,0-.23,0-.37-.46,0-.87,0-1.29,0-1.12-.02-2.08-.7-2.45-1.73-.27-.75-.18-1.38.43-1.99C5.18,9.92,9.76,5.33,14.34.73c.29-.29.55-.59.94-.73h.61c.39.14.65.44.94.73,4.57,4.58,9.14,9.15,13.71,13.73.26.26.44.6.65.9ZM6.5,15.6v12.97h5.19v-.38c0-2.44,0-4.87,0-7.31,0-.84.54-1.37,1.37-1.37,1.68,0,3.35,0,5.03,0,.87,0,1.4.53,1.4,1.4,0,2.45,0,4.89,0,7.34,0,.11,0,.22,0,.33h5.2v-12.98h3.24c-4.11-4.12-8.24-8.27-12.35-12.39C11.46,7.33,7.33,11.47,3.21,15.6h3.29ZM14.31,22.13v6.45h2.54v-6.45h-2.54Z"/>
</svg>