<?xml version="1.0" encoding="UTF-8"?>
<svg id="Layer_1" data-name="Layer 1" xmlns="http://www.w3.org/2000/svg" viewBox="0 0 26.87 26.87">
  <defs>
    <style>
      .cls-1 {
        fill: #41af52;
        stroke-width: 0px;
      }
    </style>
  </defs>
  <path class="cls-1" d="M13.79,25.86h-.7c-.15-.01-.3-.03-.44-.04-.72-.04-1.42-.15-2.12-.32-2.87-.72-5.2-2.25-7-4.6-.79-1.04-1.39-2.18-1.82-3.41-.38-1.1-.61-2.24-.66-3.4,0-.1-.03-.21-.04-.31,0-.23,0-.47,0-.7,0-.04.02-.09.02-.13.04-.48.07-.95.14-1.42.14-.91.38-1.8.72-2.66.65-1.64,1.61-3.08,2.87-4.31,1.38-1.35,2.99-2.32,4.82-2.93,1-.33,2.03-.53,3.09-.59.76-.04,1.52-.03,2.28.06.72.08,1.42.23,2.11.44,1.52.47,2.91,1.19,4.16,2.19,1.25,1,2.28,2.2,3.06,3.6,1.02,1.83,1.57,3.78,1.59,5.88.01,1.11-.1,2.2-.37,3.28-.41,1.6-1.11,3.07-2.1,4.39-1.03,1.36-2.28,2.48-3.76,3.33-1.67.95-3.46,1.5-5.37,1.62-.15,0-.3.03-.46.04ZM8.5,14.03c-.04.07-.07.12-.09.18-.04.12-.08.25-.1.37-.06.44-.1.88-.15,1.31-.04.36-.09.72-.19,1.07-.25.88-.8,1.48-1.66,1.79-.38.14-.78.19-1.18.18-.07,0-.13,0-.23,0,.94,1.42,2.12,2.54,3.59,3.36,1.8,1,3.73,1.41,5.8,1.25-.05-.11-.09-.21-.13-.31-.23-.57-.33-1.15-.22-1.76.15-.85.51-1.59,1.14-2.19.13-.12.25-.24.38-.36.09-.08.13-.18.12-.3,0-.08,0-.16,0-.24,0-.26-.01-.52,0-.78.04-.59.26-1.12.64-1.58.3-.36.67-.64,1.07-.89.74-.45,1.55-.59,2.4-.45.56.09,1.08.29,1.58.56.6.31,1.15.7,1.67,1.12.06.05.11.09.18.15.31-.98.47-1.97.48-2.98.01-1.02-.12-2.02-.41-2.99-.29-.97-.71-1.88-1.27-2.73-.56-.85-1.24-1.59-2.02-2.24-.74-.61-2.26-1.51-2.59-1.52.02.1.03.21.05.31.04.2.14.36.32.46.09.05.18.11.27.17.11.07.22.14.32.21.49.36.79.84.87,1.44.08.59.01,1.17-.21,1.73-.28.71-.8,1.16-1.54,1.35-.3.08-.6.1-.9.12-.21.02-.43.04-.64.07-.18.03-.34.1-.49.21-.06.04-.1.1-.11.17-.01.12-.04.25-.03.37.03.4.07.8.12,1.19.05.47.09.94.04,1.42-.06.53-.22,1.03-.56,1.45-.61.76-1.4,1.13-2.38,1.11-.48-.01-.94-.15-1.38-.34-.47-.21-.91-.48-1.34-.76-.29-.19-.59-.37-.89-.55-.11-.06-.23-.11-.36-.16ZM14.95,3.36c-.34-.03-.67-.07-1.01-.09-.99-.05-1.98.04-2.95.29-1.38.35-2.64.95-3.76,1.82-1.45,1.13-2.52,2.54-3.22,4.24-.39.96-.62,1.95-.71,2.98-.07.84-.03,1.68.11,2.51.06.37.14.74.25,1.1.01.05.02.1.08.12.42.16.85.3,1.31.34.17.01.33,0,.49-.05.13-.04.22-.13.25-.27,0-.04.02-.09.03-.13.06-.49.11-.98.17-1.47.05-.41.11-.83.24-1.22.16-.47.4-.89.77-1.21.46-.4.99-.6,1.6-.55.31.03.6.11.89.23.42.18.81.42,1.19.67.33.21.66.41.99.61.23.13.48.24.74.29.36.06.65-.14.7-.51.02-.18.03-.36.01-.54-.03-.37-.08-.75-.12-1.12-.05-.45-.08-.89-.01-1.34.08-.54.27-1.02.65-1.42.4-.42.88-.69,1.43-.86.43-.13.86-.16,1.3-.19.15-.01.31-.02.47-.06.02-.14.04-.27.06-.41.01-.08-.01-.13-.09-.17-.16-.09-.32-.19-.47-.29-.53-.36-.9-.84-1.1-1.45-.12-.37-.18-.76-.23-1.15-.03-.22-.05-.45-.08-.7ZM22.16,18.67s-.04-.05-.06-.06c-.42-.38-.85-.73-1.32-1.04-.36-.24-.74-.45-1.16-.58-.25-.08-.51-.13-.76-.07-.35.08-.64.28-.89.54-.08.08-.12.18-.13.3,0,.17-.01.35,0,.52.01.32.02.63-.05.94-.11.5-.35.93-.72,1.3-.15.15-.3.29-.45.44-.23.23-.36.52-.43.83-.02.08-.02.16-.01.24.04.4.24.73.48,1.05,2.36-.82,4.18-2.29,5.5-4.4Z"/>
</svg>