<?xml version="1.0" encoding="UTF-8"?>
<svg id="Layer_1" data-name="Layer 1" xmlns="http://www.w3.org/2000/svg" viewBox="0 0 26.87 26.87">
  <defs>
    <style>
      .cls-1 {
        fill: #41af52;
        stroke-width: 0px;
      }
    </style>
  </defs>
  <path class="cls-1" d="M14.06,1.24c.37.07.75.11,1.12.22,2.9.86,4.63,2.79,5.15,5.76.24,1.37-.05,2.7-.57,3.97-.75,1.85-1.85,3.48-3.15,4.98-.81.93-1.69,1.81-2.56,2.69-.41.41-.79.4-1.21,0-2-1.87-3.78-3.91-5.09-6.33-.56-1.04-1-2.12-1.17-3.29-.31-2.03.2-3.86,1.49-5.45,1.18-1.45,2.73-2.29,4.6-2.51.05,0,.11-.03.16-.04.41,0,.83,0,1.24,0ZM17.25,8.11c0-2.1-1.71-3.82-3.8-3.83-2.08,0-3.81,1.71-3.82,3.79-.01,2.09,1.71,3.82,3.81,3.83,2.08,0,3.81-1.71,3.82-3.79Z"/>
  <path class="cls-1" d="M25.63,18.86c-.14.48-.26.98-.43,1.45-.11.29-.29.56-.46.83-.13.22-.29.21-.46.03-.2-.22-.41-.44-.63-.64-.13-.12-.17-.24-.07-.4,1.03-1.67.45-3.25-.8-4.47-.65-.63-1.41-1.1-2.22-1.5-.45-.22-.46-.24-.21-.69.11-.21.22-.42.33-.63.08-.16.21-.22.37-.14,1.61.77,3.03,1.75,3.95,3.34.31.53.51,1.1.59,1.72,0,.04.03.07.05.1v1Z"/>
  <path class="cls-1" d="M13.16,24.1c2.6-.03,4.86-.39,7.01-1.32.07-.03.14-.12.16-.19.21-.73.79-1.17,1.54-1.16.69.01,1.27.5,1.44,1.2.13.57-.09,1.19-.57,1.54-.52.38-1.18.42-1.72.08-.12-.08-.2-.08-.34-.02-1.31.57-2.67.93-4.08,1.15-1.56.24-3.13.31-4.7.19-2.8-.22-5.47-.89-7.83-2.51-1.05-.72-1.93-1.61-2.44-2.8-.76-1.75-.44-3.38.67-4.88.91-1.22,2.14-2.03,3.49-2.68.17-.08.3-.04.39.14.13.26.28.52.41.78.13.24.1.35-.15.47-.81.39-1.58.84-2.24,1.46-.74.69-1.3,1.47-1.42,2.51-.11.98.23,1.81.84,2.54.9,1.09,2.08,1.77,3.36,2.3,1.5.63,3.08.97,4.7,1.1.58.05,1.16.07,1.47.09Z"/>
  <path class="cls-1" d="M13.53,21.84c-.71-.04-1.32-.07-1.93-.12-.27-.02-.33-.14-.25-.4.07-.27.13-.54.18-.81.05-.26.12-.31.38-.29,1.87.15,3.72.06,5.55-.41.69-.18,1.37-.41,1.96-.82.65-.45.66-.78,0-1.21-.36-.23-.76-.39-1.14-.57-.28-.13-.32-.25-.13-.49.19-.24.38-.48.57-.73.1-.14.22-.17.37-.11.68.28,1.32.62,1.82,1.18.73.82.73,1.87-.02,2.68-.43.46-.96.78-1.53,1.03-1.12.5-2.3.75-3.51.89-.8.09-1.61.13-2.32.18Z"/>
  <path class="cls-1" d="M10.01,20.28c0,.77-.59,1.44-1.33,1.53-.77.09-1.48-.39-1.67-1.15-.04-.14-.1-.22-.24-.31-.78-.48-1.37-1.1-1.33-2.09.03-.66.39-1.16.9-1.53.44-.32.95-.56,1.43-.83.16-.09.3-.05.41.1.19.25.39.5.58.75.16.21.11.33-.12.45-.42.21-.87.39-1.26.65-.56.38-.54.64-.02,1.07.13.11.22.13.39.04,1.02-.57,2.26.16,2.26,1.32Z"/>
  <path class="cls-1" d="M13.45,5.81c1.26,0,2.27,1.02,2.27,2.29,0,1.28-1.02,2.29-2.31,2.28-1.26,0-2.27-1.03-2.26-2.3,0-1.26,1.03-2.27,2.3-2.27Z"/>
</svg>