<svg xmlns="http://www.w3.org/2000/svg" width="52.55" height="53.176" viewBox="0 0 52.55 53.176">
  <defs>
    <style>
      .cls-1 {
        fill: #fff;
        opacity: 0;
      }

      .cls-2 {
        fill: #41af52;
        stroke: #44ad51;
      }
    </style>
  </defs>
  <g id="Component_10_1" data-name="Component 10 – 1" transform="translate(19.776) rotate(30)">
    <rect id="Rectangle_329" data-name="Rectangle 329" class="cls-1" width="35" height="37" transform="translate(0.721 2.553)"/>
    <g id="Notification_Icon" data-name="Notification Icon" transform="translate(-0.005 13.192) rotate(-30)">
      <path id="Path_64" data-name="Path 64" class="cls-2" d="M12.673,30a10.661,10.661,0,0,1-1.454-.485,4.2,4.2,0,0,1-2.259-2.773c-.058-.213-.145-.262-.359-.262H1.018a.91.91,0,0,1-.931-.524A.882.882,0,0,1,.32,24.919,13.51,13.51,0,0,0,3.85,18.045a20.2,20.2,0,0,0,.262-2.763c.039-.911,0-1.833.01-2.754a9.071,9.071,0,0,1,6.186-8.542q.116-.044.262-.087V2.608a2.633,2.633,0,0,1,5.265-.01V3.9a9.052,9.052,0,0,1,3.035,1.61,8.776,8.776,0,0,1,3.345,6.118c.107,1.125.068,2.259.068,3.394A13.777,13.777,0,0,0,24.444,22.8a23.517,23.517,0,0,0,1.668,2.143.889.889,0,0,1-.349,1.5,1.225,1.225,0,0,1-.378.039H17.831c-.242,0-.32.068-.4.291a4.285,4.285,0,0,1-3.568,3.171c-.048,0-.087.039-.136.048H12.673ZM2.861,24.706H23.581c-.107-.145-.184-.271-.271-.388a15.108,15.108,0,0,1-2.725-7.612c-.087-1.2-.039-2.424-.068-3.626a13.475,13.475,0,0,0-.107-1.658A7.316,7.316,0,0,0,5.876,12.7v2.957a15.216,15.216,0,0,1-1.842,7.117c-.359.659-.776,1.28-1.164,1.93ZM10.753,26.5a2.576,2.576,0,0,0,2.5,1.745A2.548,2.548,0,0,0,15.63,26.5Zm3.316-22.97c0-.339.029-.679,0-1.018a.863.863,0,0,0-1.707-.039,7.69,7.69,0,0,0-.01,1.057h1.726Z"/>
      <path id="Path_65" data-name="Path 65" class="cls-2" d="M.02,12.3A13.09,13.09,0,0,1,3.85,3.391a.886.886,0,1,1,1.231,1.27A11.356,11.356,0,0,0,2.5,8.695a11.75,11.75,0,0,0-.727,4,.822.822,0,0,1-.475.776A.742.742,0,0,1,.4,13.4a1.76,1.76,0,0,1-.368-.659,1.317,1.317,0,0,1,0-.436Z" transform="translate(-0.002 0.026)"/>
      <path id="Path_66" data-name="Path 66" class="cls-2" d="M27.042,12.331v.349A.873.873,0,1,1,25.3,12.7,11.421,11.421,0,0,0,22,4.691a.892.892,0,0,1,.136-1.464.873.873,0,0,1,1.1.194,12.961,12.961,0,0,1,3.51,6.458c.175.8.242,1.639.359,2.453Z" transform="translate(-0.717 0.044)"/>
    </g>
  </g>
</svg>
