<?xml version="1.0" encoding="UTF-8"?>
<svg id="Layer_1" data-name="Layer 1" xmlns="http://www.w3.org/2000/svg" viewBox="0 0 26.87 26.87">
  <defs>
    <style>
      .cls-1 {
        fill: #41af52;
        stroke-width: 0px;
      }
    </style>
  </defs>
  <path class="cls-1" d="M18.62,12.97c1.27.19,2.37.61,3.3,1.44,2.12,1.88,2.58,5.02,1.06,7.4-1.52,2.39-4.54,3.33-7.14,2.18-.38-.17-.7-.19-1.04.01-1.04.62-2.07.65-3.1,0-.6-.37-1.2-.35-1.8,0-.99.59-1.99.65-3,.03-.65-.4-1.3-.38-1.97,0-.37.2-.78.34-1.18.48-.46.15-.71-.03-.75-.5-.01-.13,0-.27,0-.41,0-6.49,0-12.98-.01-19.47,0-.62.22-.88.77-1.17,1.44-.76,2.82-.9,4.26-.04.19.11.56.1.75,0,1.38-.8,2.72-.8,4.09,0,.2.12.6.11.81-.01,1.38-.81,2.7-.73,4.1.01.6.31.88.58.87,1.28-.04,2.69-.02,5.39-.01,8.08,0,.23,0,.46,0,.71ZM17.63,13.14c0-3.12,0-6.02,0-8.92,0-.12-.11-.31-.21-.35-.95-.41-1.87-.96-2.93-.23-.76.52-1.59.53-2.39.03-.86-.53-1.7-.5-2.56,0-.71.42-1.44.51-2.18.05-.94-.59-1.86-.52-2.83-.01-.39.2-.52.39-.52.82.01,6.04,0,12.09,0,18.13,0,.2,0,.4,0,.66.18-.05.29-.05.36-.1,1.1-.71,2.18-.59,3.26.04.52.3,1.03.3,1.53,0,1.11-.68,2.21-.68,3.32,0,.65.4,1.24.23,1.88-.19-1.29-1.15-1.91-2.6-1.99-4.34h-.68c-1.78,0-3.56,0-5.35,0-.15,0-.35.05-.46-.02-.17-.11-.37-.3-.39-.48-.01-.13.21-.33.37-.43.12-.07.3-.03.46-.03,1.88,0,3.76,0,5.64-.01.19,0,.47-.11.54-.25.17-.36.24-.76.38-1.21-.24,0-.43,0-.61,0-1.84,0-3.68,0-5.52,0-.27,0-.56.06-.81-.03-.19-.07-.4-.3-.44-.49-.02-.11.25-.32.43-.43.12-.07.3-.02.46-.02,2.19,0,4.38,0,6.57,0,.21,0,.48.01.6-.11.44-.42.83-.89,1.27-1.37-.17,0-.38,0-.58,0-2.63,0-5.27,0-7.9,0-.17,0-.38.04-.51-.04-.16-.1-.33-.3-.34-.46-.01-.13.18-.33.32-.42.11-.07.3-.04.45-.04,3.2,0,6.39,0,9.59,0,.15,0,.31,0,.46.03.41.06.82.14,1.32.23ZM22.89,18.75c.01-2.63-2.12-4.79-4.74-4.8-2.62-.01-4.78,2.14-4.8,4.76-.02,2.62,2.13,4.78,4.76,4.79,2.64.01,4.78-2.1,4.79-4.75Z"/>
  <path class="cls-1" d="M11,8.97c-1.61,0-3.21,0-4.82,0-.36,0-.71-.04-.71-.48,0-.43.35-.49.71-.49,3.25,0,6.51,0,9.76,0,.36,0,.71.04.71.48,0,.45-.35.48-.71.48-1.65,0-3.29,0-4.94,0Z"/>
  <path class="cls-1" d="M11.02,11.4c-1.61,0-3.22,0-4.82,0-.35,0-.72-.02-.73-.46-.01-.48.37-.51.74-.51,3.24,0,6.47,0,9.71,0,.35,0,.71.01.73.46.01.49-.37.5-.74.5-1.63,0-3.25,0-4.88,0Z"/>
  <path class="cls-1" d="M10.83,6.53c-.75,0-1.51,0-2.26,0-.34,0-.66-.08-.67-.47,0-.43.33-.5.69-.5,1.49,0,2.97,0,4.46,0,.35,0,.65.07.66.47.01.4-.28.5-.63.5-.75,0-1.51,0-2.26,0Z"/>
  <path class="cls-1" d="M19.04,20.37c-.02-.77-.38-1.09-1.1-1.17-1.33-.14-2.18-1.39-1.68-2.59.17-.41.57-.76.93-1.06.21-.18.44-.27.41-.61-.03-.33.13-.64.47-.57.19.04.45.36.46.57.03.33.14.49.43.59.12.04.23.13.34.22.29.22.49.5.22.83-.25.31-.54.18-.81-.05-.36-.3-.82-.4-1.16-.06-.23.24-.41.66-.39.99.02.51.45.72.94.77,1.46.16,2.3,1.4,1.77,2.66-.13.31-.36.62-.62.81-.37.27-.82.42-.73,1.02.01.1-.31.36-.44.33-.17-.03-.45-.27-.44-.41.02-.48-.22-.68-.61-.86-.31-.15-.57-.41-.32-.79.22-.34.5-.18.81-.07.31.11.73.17,1.02.04.26-.11.41-.5.5-.63Z"/>
</svg>