<?xml version="1.0" encoding="UTF-8"?>
<svg id="Layer_1" data-name="Layer 1" xmlns="http://www.w3.org/2000/svg" viewBox="0 0 31.19 31.2">
  <defs>
    <style>
      .cls-1 {
        fill: #41af52;
        stroke-width: 0px;
      }
    </style>
  </defs>
  <path class="cls-1" d="M4.68,26.74c0,.46,0,.9,0,1.33,0,.81-.6,1.48-1.4,1.56-.8.08-1.52-.45-1.69-1.24-.02-.1-.03-.21-.03-.31,0-1.56,0-3.13,0-4.69,0-.86.69-1.55,1.55-1.55,2.09,0,4.17,0,6.26,0,.86,0,1.55.7,1.55,1.56,0,.87-.69,1.56-1.56,1.56-.62,0-1.24,0-1.86,0h-.1l-.02.03s.05.02.07.04c1.77,1.52,3.8,2.52,6.11,2.87,4.11.62,7.71-.49,10.73-3.36,1.97-1.88,3.16-4.2,3.62-6.89.12-.67.17-1.35.17-2.04,0-.81.55-1.44,1.34-1.56.89-.14,1.75.56,1.77,1.47.02.7-.03,1.39-.12,2.08-.22,1.69-.7,3.29-1.44,4.82-2.13,4.37-6.16,7.49-10.92,8.46-1.54.31-3.1.4-4.66.23-3.58-.37-6.67-1.82-9.28-4.3-.02-.02-.05-.04-.09-.08Z"/>
  <path class="cls-1" d="M23.83,6.24s-.07-.07-.1-.09c-1.78-1.53-3.83-2.49-6.15-2.87-6.49-1.06-12.73,3.16-14.16,9.57-.2.9-.3,1.82-.31,2.74,0,.81-.61,1.48-1.4,1.56-.8.08-1.53-.44-1.68-1.23-.05-.28-.04-.58-.03-.86.06-1.68.38-3.32.97-4.9C2.83,5.17,7.13,1.45,12.34.34,13.82.03,15.32-.07,16.83.05c3.7.31,6.9,1.76,9.59,4.33.02.02.05.05.09.09,0-.06,0-.09,0-.13,0-.4,0-.81,0-1.21,0-.81.61-1.48,1.4-1.56.8-.08,1.52.45,1.69,1.23.02.11.03.23.03.35,0,1.54,0,3.08,0,4.62,0,.91-.68,1.59-1.59,1.59-2.07,0-4.13,0-6.2,0-.81,0-1.48-.59-1.56-1.4-.09-.79.44-1.52,1.23-1.69.1-.02.21-.03.32-.03.62,0,1.25,0,1.87,0,.03,0,.07,0,.13,0Z"/>
  <path class="cls-1" d="M17.16,21.76c.04.97-.78,1.66-1.6,1.64-.76-.02-1.51-.62-1.54-1.56-.04,0-.07,0-.11,0-.49,0-.98,0-1.47,0-.78-.01-1.41-.58-1.52-1.37-.1-.73.36-1.46,1.08-1.68.16-.05.34-.07.52-.07,1.28,0,2.56,0,3.84,0,.39,0,.71-.26.78-.62.09-.49-.27-.93-.77-.93-.56,0-1.12,0-1.68,0-1.87-.04-3.49-1.49-3.74-3.35-.27-2.03,1-3.88,2.99-4.35.03,0,.05-.01.08-.02,0-.51.17-.95.57-1.28.29-.24.63-.36,1.02-.36.71,0,1.52.58,1.55,1.56h.11c.47,0,.94,0,1.4,0,.94,0,1.63.72,1.59,1.66-.03.77-.69,1.43-1.46,1.46-.31.01-.62,0-.94,0-1.02,0-2.03,0-3.05,0-.34,0-.59.16-.72.47-.13.3-.08.59.14.83.15.17.35.25.58.25.51,0,1.02,0,1.53,0,1.94,0,3.55,1.37,3.87,3.28.34,2-.98,3.96-2.96,4.42-.03,0-.07.02-.1.02Z"/>
</svg>