<?xml version="1.0" encoding="UTF-8"?>
<svg id="Layer_1" data-name="Layer 1" xmlns="http://www.w3.org/2000/svg" viewBox="0 0 31.11 31.2">
  <defs>
    <style>
      .cls-1 {
        fill: #fff;
        stroke-width: 0px;
      }
    </style>
  </defs>
  <path class="cls-1" d="M17.49,31.2h-3.89c-.19-.07-.36-.18-.56-.22C4.42,29.48-1.15,21.74.2,13.1,1.28,6.19,6.93.85,13.97.09c6.89-.74,13.69,3.45,16.12,9.99.43,1.16.68,2.4,1.02,3.6v3.9c-.08.23-.19.45-.23.68-1.14,5.92-4.56,9.92-10.16,12.06-1.04.4-2.15.6-3.23.9v-.02ZM15.5,28.55c7.15.02,12.94-5.7,12.97-12.82.04-7.22-5.7-13.03-12.88-13.04-7.15-.02-12.94,5.7-12.97,12.82-.04,7.22,5.69,13.03,12.87,13.04h0Z"/>
  <path class="cls-1" d="M10.37,15.62c0,1.38-1.3,2.66-2.67,2.61-1.34-.04-2.55-1.28-2.55-2.61s1.3-2.66,2.67-2.61c1.34.04,2.55,1.28,2.55,2.61Z"/>
  <path class="cls-1" d="M15.56,13.01c1.38.01,2.65,1.32,2.59,2.68-.05,1.34-1.3,2.55-2.62,2.54-1.38-.01-2.65-1.32-2.59-2.68.05-1.34,1.3-2.55,2.62-2.54Z"/>
  <path class="cls-1" d="M25.94,15.66c-.03,1.39-1.36,2.64-2.71,2.56s-2.54-1.33-2.5-2.65c.03-1.39,1.36-2.64,2.71-2.56,1.35.08,2.54,1.33,2.5,2.65Z"/>
</svg>