<?xml version="1.0" encoding="UTF-8"?>
<svg id="Layer_1" data-name="Layer 1" xmlns="http://www.w3.org/2000/svg" viewBox="0 0 28.35 11.34">
  <defs>
    <style>
      .cls-1 {
        fill: #41af52;
        stroke-width: 0px;
      }
    </style>
  </defs>
  <path class="cls-1" d="M28.35.77c-.07.31-.14.61-.2.92-.19.94-.37,1.89-.55,2.83-.07.33-.28.54-.58.58-.27.03-.54-.11-.64-.37-.05-.12-.07-.26-.05-.38.04-.3.11-.6.17-.9.06-.3.11-.59.17-.91-.05.03-.08.04-.12.06-.87.55-1.75,1.11-2.62,1.66-.36.23-.72.15-.95-.2-.36-.55-.72-1.11-1.08-1.66-.03-.04-.05-.08-.09-.13-.18.12-.36.24-.54.36-.5.33-1,.67-1.5,1-.38.26-.75.16-1-.23-.96-1.49-2.34-2.22-4.11-2.11-2.06.12-3.76,1.76-4.01,3.82-.04.32-.02.64-.03.96,0,.28-.17.52-.43.61-.27.09-.56.01-.72-.22-.07-.1-.12-.22-.13-.34-.11-1.33.2-2.56.97-3.66C11.46.85,13.04,0,15.03,0c1.77,0,3.24.72,4.38,2.08.04.05.08.1.14.16.04-.03.09-.05.13-.08.64-.43,1.28-.85,1.92-1.28.37-.25.74-.17.99.2.36.55.72,1.11,1.08,1.66.03.04.05.08.09.12.66-.42,1.32-.84,1.98-1.26,0-.01,0-.02,0-.03-.05,0-.1,0-.15,0-.38,0-.77,0-1.15,0-.36,0-.64-.29-.63-.65,0-.35.29-.63.65-.63,1.3,0,2.61,0,3.91,0v.48Z"/>
  <path class="cls-1" d="M0,10.38c.09-.29.31-.44.57-.56,1.88-.9,3.75-1.81,5.63-2.72.37-.18.69-.09.91.26.28.46.56.93.85,1.39.02.04.05.08.08.13.52-.28,1.03-.56,1.55-.84.24-.13.48-.26.72-.39.37-.2.71-.1.92.25.71,1.15,1.74,1.87,3.08,2.08,1.66.26,3.05-.29,4.12-1.57.73-.87,1.04-1.9.97-3.04-.02-.39.16-.67.5-.75.38-.08.74.16.78.55.1,1.07-.08,2.08-.58,3.03-.91,1.74-2.33,2.8-4.28,3.07-2.14.29-3.9-.47-5.28-2.11-.03-.04-.06-.07-.09-.11-.54.29-1.07.58-1.6.86-.24.13-.47.26-.71.39-.34.18-.69.09-.89-.24-.29-.47-.58-.95-.87-1.43-.03-.04-.05-.09-.09-.14-.5.24-.99.48-1.49.72-1.24.6-2.49,1.2-3.73,1.81-.54.26-.84.14-1.07-.4v-.23Z"/>
  <path class="cls-1" d="M15.54,2.34v.67c.37.08.67.26.86.59.18.32.22.68.21,1.05h-1.03c-.02-.14-.02-.27-.05-.4-.08-.38-.57-.55-.88-.31-.16.12-.22.35-.11.53.09.14.2.27.33.37.25.2.51.37.77.55.34.25.66.53.87.9.33.59.2,1.34-.32,1.72-.16.12-.36.19-.55.26-.1.03-.12.07-.12.16,0,.17,0,.35,0,.53h-1.02c0-.18,0-.37,0-.55,0-.07,0-.11-.09-.13-.72-.16-.98-.65-1.04-1.29-.01-.13,0-.25,0-.38,0-.03,0-.05.01-.09h1.04c.02.19.03.37.06.55.05.28.23.4.55.39.28,0,.46-.14.51-.39.04-.19-.05-.35-.18-.46-.22-.18-.46-.34-.69-.52-.31-.24-.63-.47-.91-.74-.5-.48-.51-1.64.11-2.07.19-.13.41-.21.64-.32v-.63h1.02Z"/>
</svg>