<?xml version="1.0" encoding="UTF-8"?>
<svg id="Layer_1" data-name="Layer 1" xmlns="http://www.w3.org/2000/svg" viewBox="0 0 27.89 31.2">
  <defs>
    <style>
      .cls-1 {
        fill: #41af52;
        stroke-width: 0px;
      }
    </style>
  </defs>
  <path class="cls-1" d="M26.83,17c-.42-.02-.85-.04-1.27-.04h0c-.65,0-1.08.41-1.13,1.08-.04.53-.08,1.01-.17,1.48-.99,5.33-5.95,8.9-11.29,8.13-4.01-.58-7.36-3.59-8.35-7.51-.05-.18-.09-.37-.12-.56.24.62.79,1,1.47,1.02.28,0,.57,0,.85,0h.29c.54,0,.97-.22,1.29-.64l.22.52-.22.21c-.28.27-.55.54-.82.81-.45.46-.48,1.05-.07,1.5.48.54.99,1.04,1.49,1.5.46.42,1.07.39,1.55-.07l.17-.16c.19-.18.39-.36.55-.58.25-.33.4-.31.64-.14.12.08.26.12.36.15,0,.47,0,.94,0,1.41,0,.69.41,1.14,1.05,1.17.67.04,1.37.04,2.06,0,.66-.03,1.07-.49,1.07-1.19v-.23c.01-.22.02-.44,0-.67-.07-.51.07-.62.4-.66.12-.02.22-.07.34-.11.27.28.55.56.82.83l.13.13c.52.51,1.12.54,1.64.07.48-.43.94-.89,1.37-1.37.34-.38.61-.98-.07-1.66l-.97-.96.3-.72h.32c.37,0,.74,0,1.11,0,.67,0,1.1-.39,1.13-1.01.04-.7.04-1.42,0-2.15-.03-.6-.45-.99-1.09-1.02h-.14c-.27-.02-.54-.03-.81,0-.52.08-.65-.09-.71-.43-.02-.09-.06-.19-.1-.3.34-.32.66-.65.99-.98.49-.51.52-1.09.07-1.59-.46-.52-.89-.95-1.32-1.34-.66-.58-1.16-.56-1.81.09l-.88.89-.11-.05c-.2-.09-.39-.17-.61-.27,0-.48,0-.96,0-1.45-.01-.63-.44-1.09-1.05-1.11-.7-.03-1.4-.03-2.08,0-.62.02-1.04.48-1.05,1.14v.21c-.01.22-.02.44,0,.67.08.56-.1.7-.45.75-.09.01-.17.06-.22.14-.2-.19-.4-.38-.6-.58l-.02-.02c1.08-1.02,1.74-2.23,2.01-3.69,2.02-.1,4.07-.08,6.06-.07,1.23,0,2.51.01,3.77,0v.2c0,.43.17.74.49.92.33.17.68.14,1.03-.1l1.33-.88c.52-.35,1.04-.69,1.56-1.04.31-.21.48-.5.48-.81s-.17-.6-.48-.81c-.97-.65-1.94-1.3-2.92-1.94-.33-.22-.7-.26-.99-.1-.3.16-.49.48-.51.89,0,.07,0,.15,0,.22-1.32.02-2.65.02-3.95,0-2.03-.01-4.13-.02-6.21.08-.82-2.05-2.31-3.41-4.43-4.02-.22-.06-.45-.11-.67-.15l-.3-.06h-1.43s-.2.05-.2.05C3.51.34,1.66,1.68.69,3.63c-.98,1.97-.92,4.27.16,6.16.38.66.88,1.26,1.49,1.79-1.43,2.81-1.83,5.81-1.19,8.92,1.23,5.9,6.48,10.39,12.49,10.68.23.01.47.02.7.02,2.37,0,4.61-.59,6.65-1.75.53-.3,1.04-.67,1.52-1.02l.36-.26c.17-.12.27-.29.3-.47.03-.19-.02-.38-.14-.54-.24-.32-.67-.38-1.03-.14-.04.03-.09.06-.13.1l-.07.05c-3.66,2.71-7.61,3.31-11.72,1.77-5.58-2.09-8.74-7.88-7.52-13.78.03-.13.06-.26.09-.39.05.25.15.5.33.75-.41.59-.45,1.22-.14,1.87,0,.01,0,.06,0,.09,0,.04,0,.08,0,.12.03.26.05.53.07.79.04.58.09,1.17.21,1.75,1.29,6,7.39,10.05,13.33,8.83,4.73-.97,7.78-3.86,9.09-8.6.14-.49.21-1,.28-1.49.02-.15.04-.3.07-.45h.54c-.02.14-.04.27-.06.41-.07.51-.14.99-.24,1.47-.42,1.93-1.31,3.69-2.64,5.24-.19.22-.27.43-.25.64.01.13.06.31.26.48.16.13.34.19.52.17.15-.01.37-.09.59-.36l.12-.15c.28-.35.57-.72.83-1.1,1.42-2.11,2.2-4.49,2.32-7.09.03-.67-.38-1.13-1.06-1.16ZM3.13,13.34c.04-.11.09-.21.14-.32,0,.03.02.06.02.09-.01.02-.03.05-.06.08-.03.05-.07.1-.1.15ZM13.06,5.7s.07,0,.11-.01c.26-.03.51-.05.76-.06,2.34,0,4.68,0,7.03,0h2.01c.9,0,1.15-.11,1.3-.8l1.6,1.06-1.6,1.06c-.14-.7-.38-.78-1.32-.78h-9.85l-.04-.47ZM6.01,19.16c-.12,0-.15-.05-.17-.13-.05-.22-.1-.45-.15-.69h1.75c-.05.25-.1.49-.17.7-.02.04-.12.1-.18.11-.25.03-.5.02-.77.02h-.31ZM18.78,15.43c.11.23.21.47.3.72.23.65.58.9,1.28.9h.98s.25,0,.25,0v1.27h-1.24c-.71,0-1.03.23-1.27.9-.09.26-.21.52-.32.78-.24.53-.17.97.23,1.37.25.26.51.51.79.78l.21.2-.93.92-.19-.19c-.25-.25-.48-.49-.72-.73-.49-.49-.89-.56-1.54-.25-.25.12-.52.22-.78.31-.53.2-.79.55-.8,1.1,0,.45-.01.9,0,1.4,0,0,0,0,0,0-.24,0-.48,0-.73,0-.18,0-.37,0-.56,0,0,0,0,0,0,0,.01-.46,0-.93,0-1.39,0-.56-.25-.9-.78-1.1-.3-.12-.6-.24-.9-.37-.54-.24-.95-.17-1.36.23-.26.26-.52.52-.8.8l-.19.19-.92-.92.14-.13c.29-.29.56-.55.82-.81.45-.46.53-.88.25-1.47-.1-.21-.2-.42-.27-.63-.22-.61-.33-.76-.8-.94.03-.05.08-.08.21-.11.4-.09.74-.31.98-.62,0,.12-.02.25,0,.37.18,2.3,2.14,3.96,4.66,3.96h.02c1.33-.05,2.55-.83,3.35-2.15.14-.23.26-.5.34-.77.11-.37-.07-.71-.46-.85-.34-.12-.66,0-.85.32-.04.07-.07.14-.1.22-.01.03-.03.07-.04.1-.57,1.15-1.49,1.7-2.7,1.67-1.2-.03-2.08-.64-2.54-1.76-.47-1.13-.27-2.16.58-3.06.7-.74,1.66-1.04,2.64-.83,1.02.23,1.82.98,2.16,2.01.25.75.78.64.94.59.42-.14.58-.52.44-1.02-.61-2.1-2.69-3.41-4.85-3.03-1.52.26-2.74,1.34-3.28,2.71-.05-.19-.12-.38-.24-.56l-.03-.04c.53-.85.42-1.75-.31-2.43l.02-.07c.07-.21.15-.43.23-.65l.02.03c.19.21.37.41.56.61.47.48.86.54,1.49.25.25-.12.51-.22.78-.31.56-.2.82-.56.82-1.14,0-.37,0-.74,0-1.12v-.23h1.29v1.26c0,.72.22,1.02.91,1.26.24.09.48.19.72.3.6.28,1,.21,1.46-.25.24-.24.49-.49.76-.77l.23-.23.9.93-.22.21c-.27.27-.52.51-.76.76-.47.47-.54.89-.25,1.49ZM7.31,6.56c0,.19-.08.38-.23.53-.15.14-.35.24-.53.22-.42,0-.74-.34-.74-.77,0-.2.08-.39.22-.52.14-.14.33-.19.54-.21.4,0,.74.35.74.75ZM4.18,14.29c.07-.07.18-.11.33-.11,1.37,0,2.73,0,4.1,0,.39,0,.39.23.39.3,0,.09-.02.17-.07.21-.06.06-.18.1-.33.1-.48,0-.97,0-1.45,0h-.61s-.6,0-.6,0c-.48,0-.96,0-1.43,0-.18,0-.39-.05-.4-.3,0-.09.02-.16.07-.21ZM9.84,10.45c-.77.65-1.21,1.33-1.38,2.13-.03.14-.04.16-.22.15-.16-.01-.33-.01-.49-.01-.12,0-.24,0-.36,0h-.11s0-.28,0-.28v-1.21c0-.08,0-.17-.01-.26-.01-.13-.03-.32,0-.36.04-.03.18-.05.26-.07.11-.02.22-.04.31-.07,1.26-.44,2.13-1.29,2.57-2.52.1-.27.1-.5,0-.69-.06-.11-.17-.27-.42-.35-.15-.05-.67-.17-.94.54-.32.85-.9,1.4-1.76,1.67v-.48c.45-.18.8-.45,1.05-.8.35-.5.48-1.11.36-1.7s-.47-1.1-.99-1.43c-.51-.32-1.12-.42-1.71-.26-.59.15-1.09.54-1.38,1.07-.29.54-.35,1.18-.15,1.77.19.57.59,1.01,1.13,1.25.25.11.25.17.23.35-.01.07-.01.15-.01.23-1.03-.29-1.84-1.25-1.92-2.33-.09-1.27.72-2.43,1.91-2.77,1.35-.38,2.68.27,3.21,1.59.08.2.21.52.61.6.26.05.51-.04.67-.23.17-.21.22-.49.12-.76-.55-1.47-1.62-2.39-3.1-2.66-1.12-.21-2.22.02-3.12.65-.91.64-1.52,1.62-1.72,2.76-.36,2.1,1.18,4.27,3.29,4.64.02,0,.04,0,.05,0,0,.01,0,.02,0,.04,0,.56,0,1.12,0,1.7v.38s-.06,0-.06,0c-.36,0-.71,0-1.06,0-.06-.14-.1-.29-.15-.44-.2-.68-.58-1.23-1.14-1.69-1.31-1.06-1.97-2.46-1.96-4.14,0-2.31,1.79-4.45,4.07-4.89,1.45-.28,2.88.02,4.03.84,1.13.8,1.86,2.02,2.07,3.44.27,1.84-.32,3.4-1.76,4.62ZM4.18,16.37c.07-.07.19-.1.34-.1,1.36,0,2.73,0,4.09,0,.25,0,.38.1.39.31,0,.09-.02.17-.07.22-.06.07-.18.1-.33.1-.47,0-.94,0-1.41,0h-.63s-.61,0-.61,0h-1.42c-.13,0-.42-.03-.42-.31,0-.09.02-.16.07-.21Z"/>
  <path class="cls-1" d="M29.85,12.11l-.49-.85c-.3-.52-.6-1.04-.9-1.56-.22-.37-.56-.56-.97-.56-.33,0-.65,0-.97,0h-.43s-.41,0-.41,0c-.32,0-.64,0-.96,0-.45-.02-.78.19-1,.56l-1.39,2.4c-.22.38-.22.77,0,1.15.46.79.92,1.58,1.37,2.38.22.39.56.59,1.01.59h.01c.92,0,1.83,0,2.75,0h.01c.44,0,.77-.19.99-.56l1.39-2.4c.22-.37.22-.77,0-1.15ZM28.48,12.65s0,.07,0,.09c-.37.68-.76,1.34-1.16,2-.01.02-.06.04-.08.05-.28.01-.56.01-.84,0h-.32s-.31,0-.31,0c-.27,0-.54,0-.81-.01-.03,0-.09-.03-.1-.05-.38-.63-.77-1.31-1.16-2,0-.02,0-.07,0-.09.37-.68.76-1.34,1.16-2,.01-.02.06-.04.07-.04.39,0,.79-.01,1.18-.01s.76,0,1.13.01c.02,0,.06.03.08.04.4.66.79,1.33,1.16,2Z"/>
  <path class="cls-1" d="M14.37,15.15h0c-1.39,0-2.53,1.14-2.53,2.53,0,.68.26,1.32.75,1.81.48.48,1.12.75,1.79.75h0c1.39,0,2.53-1.14,2.53-2.54,0-.68-.26-1.32-.74-1.8-.48-.48-1.12-.75-1.81-.75ZM15.46,17.69c0,.6-.48,1.07-1.08,1.08-.29,0-.57-.11-.77-.31-.21-.2-.32-.48-.32-.78s.11-.57.32-.78c.2-.2.47-.32.76-.32h0c.6,0,1.08.5,1.08,1.11Z"/>
  <path class="cls-1" d="M26.09,10.72c-.53,0-1.03.2-1.4.57-.37.37-.58.87-.58,1.4,0,1.08.87,1.97,1.95,1.98h.02c1.08,0,1.98-.87,2-1.96,0-.52-.19-1.02-.56-1.4-.38-.38-.88-.6-1.41-.6h0ZM26.09,13.22h0c-.13,0-.26-.05-.36-.15-.1-.1-.16-.24-.16-.38,0-.29.23-.53.52-.54h0c.13,0,.26.05.36.15.1.1.16.24.16.38,0,.3-.22.54-.52.54Z"/>
</svg>