<?xml version="1.0" encoding="UTF-8"?>
<svg id="Layer_1" data-name="Layer 1" xmlns="http://www.w3.org/2000/svg" viewBox="0 0 23.78 32.02">
  <defs>
    <style>
      .cls-1 {
        stroke-width: 0px;
      }

      .cls-1, .cls-2 {
        fill: #41af52;
      }

      .cls-2 {
        stroke: #41af52;
        stroke-miterlimit: 10;
      }
    </style>
  </defs>
  <path class="cls-1" d="M22.79,18.92c-.51.02-.87.36-.92.87,0,.1,0,.2,0,.38v8.87c0,.75-.32,1.07-1.07,1.07H3c-.75,0-1.07-.32-1.07-1.06V2.98c0-.73.32-1.06,1.05-1.06h11.39s0,.82,0,.82H4.49c-1.01,0-1.67.66-1.68,1.68,0,.55,0,1.09,0,1.64v.27c0,1.1.66,1.75,1.75,1.75,2.85,0,5.71,0,8.57,0,.17,0,.33-.02.46-.06.44-.12.7-.49.68-.96-.02-.44-.29-.78-.72-.88-.16-.04-.32-.04-.47-.04h-1.17c-2.37,0-4.74,0-7.17,0,.01-.49.01-.98,0-1.51,2.53,0,5.05,0,7.58,0h2.07s0,.25,0,.25c0,.53,0,1.04,0,1.56-.02.82.27,1.56.82,2.11.55.55,1.32.85,2.12.83,1.08-.03,2.16-.02,3.23-.02h1.3s0,8.18,0,8.18c0,.11,0,.23.02.33.07.49.45.81.95.81h.01c.46,0,.94-.29.94-1.09v-2.39c0-2.19,0-4.38,0-6.57,0-.42-.14-.75-.43-1.05-2.39-2.38-4.77-4.76-7.15-7.15-.3-.3-.64-.44-1.07-.44h-2.25c-3.31.02-6.62.02-9.92,0-.76,0-1.56.29-2.11.85C.29,1.4,0,2.15,0,2.95c.02,2.72.02,5.43.01,8.15v3.23s0,14.87,0,14.87c0,1.32.83,2.4,2.1,2.74l19.29.08.23-.02.08-.08c1.41-.48,2.07-1.4,2.07-2.91v-8.97c0-.09,0-.21-.02-.33-.1-.5-.45-.82-.97-.8ZM16.32,6.6c0-1.07,0-2.14,0-3.21l4.08,4.07c-1.07,0-2.13,0-3.19,0-.53,0-.88-.35-.88-.86Z"/>
  <path class="cls-2" d="M5.83,14.76c-.51,0-1.03,0-1.54,0-.61,0-.96-.35-.97-.96-.01-1.04-.01-2.08,0-3.12,0-.6.38-.96.97-.96,1.04,0,2.08,0,3.12,0,.56,0,.94.36.95.92.02,1.07.02,2.14,0,3.21,0,.56-.37.9-.92.91-.53.01-1.07,0-1.6,0ZM7.41,10.66h-3.15v3.16h3.15v-3.16Z"/>
  <path class="cls-2" d="M5.81,21.6c-.51,0-1.03,0-1.54,0-.59-.01-.95-.35-.96-.94-.01-1.05-.01-2.1,0-3.15,0-.6.38-.94.99-.95,1.03,0,2.06,0,3.09,0,.59,0,.97.36.97.96,0,1.04,0,2.08,0,3.12,0,.6-.36.95-.97.95-.52,0-1.05,0-1.57,0ZM4.27,17.51v3.16h3.14v-3.16h-3.14Z"/>
  <path class="cls-2" d="M5.84,28.45c-.51,0-1.03,0-1.54,0-.62,0-.98-.35-.98-.98,0-1.02,0-2.04,0-3.06,0-.65.37-1,1.03-1,1,0,2,0,3,0,.67,0,1.02.35,1.03,1.03,0,1,0,2,0,3,0,.66-.35,1-1.01,1.01-.5,0-1.01,0-1.51,0ZM7.41,24.35h-3.15v3.16h3.15v-3.16Z"/>
  <path class="cls-2" d="M15.19,19.55c-1.43,0-2.86,0-4.29,0-.1,0-.2,0-.3,0-.26-.03-.44-.22-.44-.45,0-.23.19-.43.44-.46.08,0,.16,0,.24,0,2.9,0,5.81,0,8.71,0,.07,0,.14,0,.21,0,.27.02.47.22.47.46,0,.25-.19.44-.47.45-.7.01-1.39,0-2.09,0-.83,0-1.65,0-2.48,0Z"/>
  <path class="cls-2" d="M15.19,12.7c-1.43,0-2.86,0-4.29,0-.1,0-.2,0-.3,0-.26-.03-.44-.22-.44-.45,0-.23.19-.43.44-.46.08,0,.16,0,.24,0,2.9,0,5.81,0,8.71,0,.07,0,.14,0,.21,0,.27.02.47.22.47.46,0,.25-.19.44-.47.45-.7.01-1.39,0-2.09,0-.83,0-1.65,0-2.48,0Z"/>
  <path class="cls-2" d="M15.19,26.39c-1.43,0-2.86,0-4.29,0-.1,0-.2,0-.3,0-.26-.03-.44-.22-.44-.45,0-.23.19-.43.44-.46.08,0,.16,0,.24,0,2.9,0,5.81,0,8.71,0,.07,0,.14,0,.21,0,.27.02.47.22.47.46,0,.25-.19.44-.47.45-.7.01-1.39,0-2.09,0-.83,0-1.65,0-2.48,0Z"/>
</svg>