<svg id="Component_46_1" data-name="Component 46 – 1" xmlns="http://www.w3.org/2000/svg" width="33" height="33" viewBox="0 0 33 33">
  <defs>
    <style>
      .cls-1 {
        fill: #fff;
        stroke: #707070;
      }

      .cls-1, .cls-3 {
        opacity: 0;
      }

      .cls-2 {
        fill: #41af52;
      }

      .cls-4 {
        stroke: none;
      }

      .cls-5 {
        fill: none;
      }
    </style>
  </defs>
  <g id="Rectangle_457" data-name="Rectangle 457" class="cls-1">
    <rect class="cls-4" width="33" height="33"/>
    <rect class="cls-5" x="0.5" y="0.5" width="32" height="32"/>
  </g>
  <g id="Settings_Logo" data-name="Settings Logo" transform="translate(4.35 3.79)">
    <path id="Path_67" data-name="Path 67" class="cls-2" d="M11.3,25.5a6.554,6.554,0,0,1-.711-.384,1.682,1.682,0,0,1-.58-1.168c-.065-.441-.147-.882-.212-1.323a.34.34,0,0,0-.245-.3c-.441-.163-.874-.343-1.307-.539a.284.284,0,0,0-.335.041c-.417.3-.833.6-1.258.9a1.576,1.576,0,0,1-2.164-.172c-.5-.49-.988-.98-1.478-1.478a1.585,1.585,0,0,1-.172-2.164c.286-.408.58-.809.874-1.209a.321.321,0,0,0,.041-.359c-.2-.449-.392-.907-.58-1.372a.279.279,0,0,0-.237-.2c-.6-.1-1.192-.188-1.781-.327A1.522,1.522,0,0,1-.01,13.95V11.712A1.56,1.56,0,0,1,1.346,10.12c.506-.09,1.013-.172,1.519-.253a.313.313,0,0,0,.278-.229c.172-.466.359-.923.564-1.38a.3.3,0,0,0-.041-.335c-.3-.408-.588-.817-.882-1.233a1.6,1.6,0,0,1,.188-2.222c.466-.474.939-.939,1.413-1.4a1.583,1.583,0,0,1,2.238-.18c.392.278.784.555,1.168.849a.321.321,0,0,0,.376.041c.425-.2.858-.392,1.3-.547a.373.373,0,0,0,.278-.351c.1-.564.172-1.127.3-1.683A1.554,1.554,0,0,1,11.564,0H13.8a1.56,1.56,0,0,1,1.576,1.315c.1.506.18,1.013.253,1.519a.356.356,0,0,0,.27.327c.457.163.907.351,1.356.555a.356.356,0,0,0,.425-.049c.392-.294.792-.572,1.192-.849a1.583,1.583,0,0,1,2.181.188L22.5,4.451a1.582,1.582,0,0,1,.188,2.181c-.278.392-.555.784-.841,1.168a.392.392,0,0,0-.049.466c.2.408.368.833.523,1.258a.4.4,0,0,0,.351.286c.506.074,1.013.155,1.519.253a1.547,1.547,0,0,1,1.266,1.152.272.272,0,0,0,.049.082v2.891a.414.414,0,0,0-.057.123,1.569,1.569,0,0,1-1.258,1.111c-.515.1-1.029.18-1.544.253a.366.366,0,0,0-.335.27c-.163.441-.351.874-.539,1.307a.333.333,0,0,0,.033.384c.3.4.6.817.882,1.233A1.575,1.575,0,0,1,22.541,21c-.5.523-1.013,1.029-1.527,1.527a1.574,1.574,0,0,1-2.124.155c-.417-.286-.825-.58-1.233-.882a.332.332,0,0,0-.384-.033c-.441.2-.882.376-1.331.547a.34.34,0,0,0-.245.3c-.065.433-.139.866-.212,1.3a1.717,1.717,0,0,1-.564,1.176,7.76,7.76,0,0,1-.719.408H11.31ZM21.593,5.636c-.057-.074-.106-.139-.155-.2-.449-.449-.915-.9-1.348-1.356-.163-.172-.286-.163-.466-.025-.523.392-1.062.768-1.593,1.152a.8.8,0,0,1-.931.065,9.148,9.148,0,0,0-2.173-.89.755.755,0,0,1-.6-.653c-.106-.67-.229-1.339-.335-2.009-.033-.188-.09-.278-.3-.27-.662.008-1.323,0-1.993,0-.163,0-.237.049-.261.221-.106.653-.237,1.307-.335,1.96a.933.933,0,0,1-.686.817c-.67.245-1.339.523-1.985.833A.9.9,0,0,1,7.4,5.219c-.49-.368-1-.711-1.495-1.07a.4.4,0,0,0-.572.041c-.417.417-.825.841-1.258,1.241a.326.326,0,0,0-.049.523c.392.523.76,1.07,1.143,1.593a.868.868,0,0,1,.065.947c-.31.678-.6,1.364-.841,2.058a.907.907,0,0,1-.776.662c-.629.1-1.258.212-1.887.31-.221.033-.3.131-.294.359.016.621.016,1.241,0,1.87,0,.253.106.327.327.359.645.1,1.29.221,1.936.319a.824.824,0,0,1,.727.653,7.76,7.76,0,0,0,.841,2.009.849.849,0,0,1-.074,1.054c-.384.515-.751,1.054-1.135,1.576a.248.248,0,0,0,.033.384c.466.457.931.923,1.388,1.388a.254.254,0,0,0,.4.033c.539-.392,1.086-.768,1.617-1.16A.913.913,0,0,1,8.517,20.3c.637.294,1.282.564,1.944.8a.911.911,0,0,1,.686.809c.09.629.212,1.258.3,1.887.033.221.131.286.343.278q.931-.025,1.862,0c.245,0,.335-.074.368-.31.09-.629.2-1.258.3-1.887a.9.9,0,0,1,.67-.768c.694-.245,1.372-.531,2.034-.841a.887.887,0,0,1,1,.065c.531.384,1.07.76,1.593,1.143a.274.274,0,0,0,.425-.025c.441-.457.9-.915,1.356-1.356a.282.282,0,0,0,.041-.441c-.392-.523-.76-1.07-1.143-1.6a.887.887,0,0,1-.065-1c.31-.662.6-1.348.841-2.034a.914.914,0,0,1,.8-.67c.637-.09,1.274-.212,1.911-.31a.267.267,0,0,0,.261-.31c-.008-.637-.016-1.274,0-1.919,0-.237-.09-.319-.3-.351-.637-.1-1.274-.212-1.911-.31a.9.9,0,0,1-.751-.662,21.654,21.654,0,0,0-.833-2.009.91.91,0,0,1,.065-1.037c.384-.523.751-1.054,1.127-1.576.049-.065.082-.139.131-.221Z" transform="translate(0.01 0)"/>
    <path id="Path_68" data-name="Path 68" class="cls-2" d="M8.87,14.373a5.5,5.5,0,1,1,5.521,5.5,5.53,5.53,0,0,1-5.521-5.5Zm9.556,0a2.87,2.87,0,1,0,.008.008Z" transform="translate(-1.617 -1.623)"/>
  </g>
  <g id="Settings_Logo-2" data-name="Settings Logo" class="cls-3" transform="translate(3.165 2)">
    <path id="Path_67-2" data-name="Path 67" class="cls-2" d="M12.927,29.162a7.5,7.5,0,0,1-.813-.439,1.924,1.924,0,0,1-.663-1.336c-.075-.5-.168-1.009-.243-1.513a.388.388,0,0,0-.28-.346c-.5-.187-1-.392-1.495-.616a.325.325,0,0,0-.383.047c-.476.346-.953.691-1.438,1.027a1.8,1.8,0,0,1-2.475-.2c-.57-.56-1.13-1.121-1.691-1.691a1.813,1.813,0,0,1-.2-2.475c.327-.467.663-.925,1-1.382A.367.367,0,0,0,4.3,19.83c-.234-.514-.448-1.037-.663-1.569a.32.32,0,0,0-.271-.234c-.682-.112-1.364-.215-2.036-.374a1.741,1.741,0,0,1-1.336-1.7V13.395a1.785,1.785,0,0,1,1.551-1.821c.579-.1,1.158-.2,1.737-.29a.358.358,0,0,0,.318-.262c.2-.532.411-1.056.645-1.579a.34.34,0,0,0-.047-.383c-.346-.467-.673-.934-1.009-1.41A1.831,1.831,0,0,1,3.4,5.109C3.932,4.568,4.474,4.035,5.015,3.5A1.811,1.811,0,0,1,7.575,3.3c.448.318.9.635,1.336.971a.367.367,0,0,0,.43.047c.486-.224.981-.448,1.485-.626a.426.426,0,0,0,.318-.4c.112-.645.2-1.289.346-1.924A1.778,1.778,0,0,1,13.226,0h2.559a1.785,1.785,0,0,1,1.8,1.5c.112.579.205,1.158.29,1.737a.407.407,0,0,0,.308.374c.523.187,1.037.4,1.551.635a.407.407,0,0,0,.486-.056c.448-.336.906-.654,1.364-.971a1.81,1.81,0,0,1,2.494.215l1.653,1.653a1.81,1.81,0,0,1,.215,2.494c-.318.448-.635.9-.962,1.336a.449.449,0,0,0-.056.532c.224.467.42.953.6,1.438a.46.46,0,0,0,.4.327c.579.084,1.158.177,1.737.29a1.77,1.77,0,0,1,1.448,1.317.311.311,0,0,0,.056.093v3.307a.473.473,0,0,0-.065.14,1.794,1.794,0,0,1-1.438,1.27c-.588.112-1.177.205-1.765.29a.418.418,0,0,0-.383.308c-.187.5-.4,1-.616,1.495a.381.381,0,0,0,.037.439c.346.458.682.934,1.009,1.41a1.8,1.8,0,0,1-.168,2.438c-.57.6-1.158,1.177-1.747,1.747a1.8,1.8,0,0,1-2.429.177c-.476-.327-.943-.663-1.41-1.009a.38.38,0,0,0-.439-.037c-.5.224-1.009.43-1.523.626a.388.388,0,0,0-.28.346c-.075.5-.159.99-.243,1.485a1.963,1.963,0,0,1-.645,1.345,8.875,8.875,0,0,1-.822.467H12.936ZM24.7,6.445c-.065-.084-.121-.159-.177-.224-.514-.514-1.046-1.027-1.541-1.551-.187-.2-.327-.187-.532-.028-.6.448-1.214.878-1.821,1.317a.914.914,0,0,1-1.065.075,10.462,10.462,0,0,0-2.485-1.018.864.864,0,0,1-.682-.747c-.121-.766-.262-1.532-.383-2.3-.037-.215-.1-.318-.346-.308-.757.009-1.513,0-2.279,0-.187,0-.271.056-.3.252-.121.747-.271,1.495-.383,2.242a1.067,1.067,0,0,1-.785.934c-.766.28-1.532.6-2.27.953a1.025,1.025,0,0,1-1.186-.075c-.56-.42-1.14-.813-1.709-1.224a.457.457,0,0,0-.654.047c-.476.476-.943.962-1.438,1.42a.372.372,0,0,0-.056.6c.448.6.869,1.224,1.308,1.821a.993.993,0,0,1,.075,1.084c-.355.775-.682,1.56-.962,2.354a1.037,1.037,0,0,1-.887.757c-.719.112-1.438.243-2.158.355-.252.037-.346.149-.336.411.019.71.019,1.42,0,2.139,0,.29.121.374.374.411.738.112,1.476.252,2.214.364a.943.943,0,0,1,.831.747,8.875,8.875,0,0,0,.962,2.3.971.971,0,0,1-.084,1.2c-.439.588-.859,1.2-1.3,1.8A.283.283,0,0,0,4.679,23c.532.523,1.065,1.056,1.588,1.588a.291.291,0,0,0,.458.037c.616-.448,1.242-.878,1.849-1.326a1.044,1.044,0,0,1,1.168-.084c.729.336,1.467.645,2.223.915a1.042,1.042,0,0,1,.785.925c.1.719.243,1.438.346,2.158.037.252.149.327.392.318q1.065-.028,2.13,0c.28,0,.383-.084.42-.355.1-.719.234-1.438.346-2.158a1.024,1.024,0,0,1,.766-.878c.794-.28,1.569-.607,2.326-.962a1.015,1.015,0,0,1,1.14.075c.607.439,1.224.869,1.821,1.308a.313.313,0,0,0,.486-.028c.5-.523,1.027-1.046,1.551-1.551a.322.322,0,0,0,.047-.5c-.448-.6-.869-1.224-1.308-1.831a1.015,1.015,0,0,1-.075-1.14c.355-.757.682-1.541.962-2.326a1.046,1.046,0,0,1,.915-.766c.729-.1,1.457-.243,2.186-.355a.306.306,0,0,0,.3-.355c-.009-.729-.019-1.457,0-2.2,0-.271-.1-.364-.346-.4-.729-.112-1.457-.243-2.186-.355a1.027,1.027,0,0,1-.859-.757,24.765,24.765,0,0,0-.953-2.3,1.041,1.041,0,0,1,.075-1.186c.439-.6.859-1.2,1.289-1.8.056-.075.093-.159.149-.252Z" transform="translate(0.01)"/>
    <path id="Path_68-2" data-name="Path 68" class="cls-2" d="M8.87,16.895a8.023,8.023,0,1,1,8.047,8.011A8.06,8.06,0,0,1,8.87,16.895Zm13.927,0a4.183,4.183,0,1,0,.012.012Z" transform="translate(-2.302 -2.309)"/>
  </g>
</svg>
