<svg id="Component_47_1" data-name="Component 47 – 1" xmlns="http://www.w3.org/2000/svg" width="34" height="39" viewBox="0 0 34 39">
  <defs>
    <style>
      .cls-1 {
        fill: #fff;
        stroke: #707070;
      }

      .cls-1, .cls-3 {
        opacity: 0;
      }

      .cls-2 {
        fill: #41af52;
        stroke: #41af52;
        stroke-width: 0.5px;
      }

      .cls-4 {
        stroke: none;
      }

      .cls-5 {
        fill: none;
      }
    </style>
  </defs>
  <g id="Rectangle_458" data-name="Rectangle 458" class="cls-1">
    <rect class="cls-4" width="34" height="39"/>
    <rect class="cls-5" x="0.5" y="0.5" width="33" height="38"/>
  </g>
  <g id="Support_Logo" data-name="Support Logo" transform="translate(2.809 9.76)">
    <path id="Path_193" data-name="Path 193" class="cls-2" d="M26.782,18.761c-.042.146-.083.3-.125.448a2.576,2.576,0,0,1-2.232,1.7c-.115,0-.229.01-.386.021v.292a17.148,17.148,0,0,1-.052,1.94,3.1,3.1,0,0,1-2.858,2.6c-.334.021-.667,0-.991,0a1.5,1.5,0,0,1-1.105,1.064,1.619,1.619,0,0,1-.323.031H16.76a1.45,1.45,0,1,1-.031-2.9h2a1.382,1.382,0,0,1,1.3.855.3.3,0,0,0,.334.209,7.671,7.671,0,0,0,1.21-.115,2.31,2.31,0,0,0,1.689-2.148c.01-.292,0-.574,0-.876a1.5,1.5,0,0,1-1.064.083,1.358,1.358,0,0,1-1-1.314c0-2.639-.01-5.287,0-7.926a1.408,1.408,0,0,1,1.731-1.356c.063.01.125.031.271.063-.167-.615-.323-1.178-.469-1.721a11.49,11.49,0,0,1-1.408.824,4.769,4.769,0,0,1-3.765.083.491.491,0,0,0-.323,0c-.209.073-.417.177-.626.261-.407.167-.647,0-.647-.438v-.72a.39.39,0,0,0-.1-.261,4.909,4.909,0,0,1-.8-5.569.374.374,0,0,0,.042-.115A9.263,9.263,0,0,0,4.861,11.408a1.4,1.4,0,0,1,1.408.229A1.275,1.275,0,0,1,6.8,12.67v7.978a1.344,1.344,0,0,1-1.1,1.335,1.4,1.4,0,0,1-1.575-.74.317.317,0,0,0-.313-.209,2.6,2.6,0,0,1-2.326-1.345,2.569,2.569,0,0,1-.282-1.074c-.031-1.251-.021-2.5,0-3.754a2.278,2.278,0,0,1,.855-1.815.694.694,0,0,0,.24-.553A11.381,11.381,0,0,1,4.892,5.61c.063-.073.125-.156.2-.229.2-.209.375-.229.563-.063.167.156.167.334.01.553A20.577,20.577,0,0,0,4.475,7.56a10.633,10.633,0,0,0-1.408,4.766v.156c.3-.031.584-.063.876-.094.073-.469.115-.949.219-1.418A9.881,9.881,0,0,1,8.667,4.483,9.709,9.709,0,0,1,14.3,2.909c.4,0,.793.073,1.189.1A.331.331,0,0,0,15.7,2.95c.219-.219.428-.438.657-.688-.2-.042-.386-.083-.584-.115A10.9,10.9,0,0,0,7.447,4.2c-.177.125-.344.209-.542.052a.352.352,0,0,1,.031-.6A24.6,24.6,0,0,1,9.064,2.356a10.381,10.381,0,0,1,4.255-1.064,2.811,2.811,0,0,0,.292-.042h.7a.47.47,0,0,0,.115.031,11.411,11.411,0,0,1,2.722.438.233.233,0,0,0,.146,0c.521-.156,1.043-.313,1.564-.48H19.91a.257.257,0,0,0,.115.042,4.506,4.506,0,0,1,1.981.751,4.727,4.727,0,0,1,2.169,4.829.668.668,0,0,0,.083.4,11.6,11.6,0,0,1,1.45,5.079.69.69,0,0,0,.271.594,1.456,1.456,0,0,1,.407.469c.167.334.282.688.417,1.032v4.3ZM16.666,10.021a2.307,2.307,0,0,1,.48-.188,1.016,1.016,0,0,1,.5,0,4.15,4.15,0,0,0,2.461.282A4.008,4.008,0,0,0,23.362,5.37a4.015,4.015,0,0,0-4.808-3.264A3.857,3.857,0,0,0,15.54,4.723,3.844,3.844,0,0,0,16.2,8.686c.313.375.678.7.48,1.335Zm7.352,3.056v3.681a.93.93,0,0,1-.031.292.331.331,0,0,1-.355.261.326.326,0,0,1-.365-.271,1.377,1.377,0,0,1-.021-.292V12.8a.659.659,0,1,0-1.314,0V20.45a1.476,1.476,0,0,0,.021.3.654.654,0,0,0,.709.511.623.623,0,0,0,.584-.636c.01-.532,0-1.064,0-1.6,0-.313.177-.469.448-.428.25.031.313.219.323.438v1.105a1.768,1.768,0,0,0,2-1.679c.031-1.231.031-2.472,0-3.7a1.772,1.772,0,0,0-2-1.689Zm-20.107.136a1.686,1.686,0,0,0-1.94,1.481c-.073,1.356-.021,2.732-.021,4.088a.265.265,0,0,0,.021.125,1.791,1.791,0,0,0,1.94,1.356Zm.8,3.452v3.9a.652.652,0,0,0,.542.7.667.667,0,0,0,.772-.73V12.691a.66.66,0,0,0-1.314.125v3.848Zm13,8.041h-.98a.7.7,0,1,0-.01,1.408h1.929a.7.7,0,1,0-.01-1.4H17.72ZM23.8,8.123c-.167.271-.323.511-.459.761a.461.461,0,0,0-.031.313c.156.521.344,1.022.48,1.543s.188,1.032.271,1.543l.855.063A10.206,10.206,0,0,0,23.8,8.113Z" transform="translate(0 0)"/>
    <path id="Path_194" data-name="Path 194" class="cls-2" d="M13.712,10.72a5.6,5.6,0,0,1,5.475,4.505,5.443,5.443,0,0,1-1.429,5.048.454.454,0,0,0-.115.3c-.01.3,0,.615,0,.928,0,.428-.25.584-.647.417a3.371,3.371,0,0,0-.918-.365,2.953,2.953,0,0,0-.939.261,5.7,5.7,0,0,1-7-4.495,5.639,5.639,0,0,1,4.61-6.508c.313-.052.647-.063.97-.094Zm3.15,10.325c0-.188.01-.334,0-.48a.937.937,0,0,1,.313-.793A4.591,4.591,0,0,0,18.5,15.757a4.846,4.846,0,0,0-5.423-4.213A4.873,4.873,0,1,0,15.714,20.8a.557.557,0,0,1,.542,0c.188.094.375.156.6.25Z" transform="translate(0.295 0.407)"/>
    <g id="Group_526" data-name="Group 526">
      <path id="Path_195" data-name="Path 195" class="cls-2" d="M19.051,6.342v.886a.379.379,0,1,1-.751,0V6.081c0-.323.094-.417.417-.469a.873.873,0,0,0,.782-.667.844.844,0,1,0-1.658-.3.6.6,0,0,1-.167.386.432.432,0,0,1-.407.021A.458.458,0,0,1,17.08,4.7a1.608,1.608,0,0,1,3.181-.292,1.661,1.661,0,0,1-1.2,1.9Z" transform="translate(0.682 0.082)"/>
      <path id="Path_196" data-name="Path 196" class="cls-2" d="M18.99,8.356a.354.354,0,0,1-.355.365.376.376,0,0,1-.021-.751A.376.376,0,0,1,18.99,8.356Z" transform="translate(0.732 0.289)"/>
    </g>
    <path id="Path_197" data-name="Path 197" class="cls-2" d="M13.561,15.78h1.992c.282,0,.428.136.438.365s-.156.386-.448.386H11.548c-.292,0-.448-.146-.448-.386s.156-.365.459-.365h1.992Z" transform="translate(0.425 0.624)"/>
    <path id="Path_198" data-name="Path 198" class="cls-2" d="M13.5,14.521h-.949a.36.36,0,0,1-.407-.375.347.347,0,0,1,.4-.375h1.95a.352.352,0,0,1,.4.375c0,.229-.146.365-.407.375h-.97Z" transform="translate(0.47 0.537)"/>
    <path id="Path_199" data-name="Path 199" class="cls-2" d="M13.527,17.8h.97a.338.338,0,0,1,.375.365.343.343,0,0,1-.365.375H12.515a.37.37,0,1,1,.01-.74Z" transform="translate(0.47 0.71)"/>
    <g id="Group_527" data-name="Group 527" class="cls-3" transform="translate(3.899 -10.984)">
      <path id="Path_195-2" data-name="Path 195" class="cls-2" d="M20.4,8.535V10.03a.638.638,0,1,1-1.266,0V8.1c0-.545.158-.7.7-.791A1.471,1.471,0,0,0,21.159,6.18a1.422,1.422,0,1,0-2.8-.51,1.01,1.01,0,0,1-.281.65.729.729,0,0,1-.686.035.772.772,0,0,1-.316-.58,2.711,2.711,0,0,1,5.362-.492,2.8,2.8,0,0,1-2.022,3.2Z" transform="translate(0.682 0.082)"/>
      <path id="Path_196-2" data-name="Path 196" class="cls-2" d="M19.491,8.62a.6.6,0,0,1-.6.615.633.633,0,0,1-.035-1.266A.634.634,0,0,1,19.491,8.62Z" transform="translate(1.577 3.741)"/>
    </g>
  </g>
</svg>
