<svg xmlns="http://www.w3.org/2000/svg" width="661.432" height="544" viewBox="0 0 661.432 544">
  <defs>
    <style>
      .cls-1 {
        fill: #f2f8f1;
      }

      .cls-2 {
        fill: #44ad51;
      }

      .cls-3, .cls-4 {
        fill: #4e3f3f;
      }

      .cls-3, .cls-6 {
        font-size: 27px;
      }

      .cls-3, .cls-4, .cls-5, .cls-6 {
        font-family: Poppins-Bold, Poppins;
        font-weight: 700;
      }

      .cls-4, .cls-5 {
        font-size: 30px;
      }

      .cls-10, .cls-5, .cls-6, .cls-7, .cls-9 {
        fill: #fff;
      }

      .cls-7 {
        opacity: 0;
      }

      .cls-8 {
        fill: #41af52;
      }

      .cls-10 {
        stroke: #fff;
        stroke-width: 1.5px;
      }
    </style>
  </defs>
  <g id="Table_Of_Transacions" data-name="Table Of Transacions" transform="translate(-1189.568 -147)">
    <rect id="Rectangle_22" data-name="Rectangle 22" class="cls-1" width="394" height="116" rx="23" transform="translate(1326 148)"/>
    <path id="Rectangle_22_-_Outline" data-name="Rectangle 22 - Outline" class="cls-2" d="M23,1A21.981,21.981,0,0,0,1,23V93a21.981,21.981,0,0,0,22,22H371a21.981,21.981,0,0,0,22-22V23A21.981,21.981,0,0,0,371,1H23m0-1H371a23,23,0,0,1,23,23V93a23,23,0,0,1-23,23H23A23,23,0,0,1,0,93V23A23,23,0,0,1,23,0Z" transform="translate(1326 148)"/>
    <rect id="Rectangle_54" data-name="Rectangle 54" class="cls-1" width="115" height="116" rx="27" transform="translate(1193 147)"/>
    <path id="Rectangle_54_-_Outline" data-name="Rectangle 54 - Outline" class="cls-2" d="M27,1A25.978,25.978,0,0,0,1,27V89a25.978,25.978,0,0,0,26,26H88a25.978,25.978,0,0,0,26-26V27A25.978,25.978,0,0,0,88,1H27m0-1H88a27,27,0,0,1,27,27V89a27,27,0,0,1-27,27H27A27,27,0,0,1,0,89V27A27,27,0,0,1,27,0Z" transform="translate(1193 147)"/>
    <rect id="Rectangle_65" data-name="Rectangle 65" class="cls-1" width="115" height="116" rx="27" transform="translate(1736 147)"/>
    <path id="Rectangle_65_-_Outline" data-name="Rectangle 65 - Outline" class="cls-2" d="M27,1A25.978,25.978,0,0,0,1,27V89a25.978,25.978,0,0,0,26,26H88a25.978,25.978,0,0,0,26-26V27A25.978,25.978,0,0,0,88,1H27m0-1H88a27,27,0,0,1,27,27V89a27,27,0,0,1-27,27H27A27,27,0,0,1,0,89V27A27,27,0,0,1,27,0Z" transform="translate(1736 147)"/>
    <text id="_Today_Send" data-name=" Today Send" class="cls-3" transform="translate(1356 214)"><tspan x="0" y="0" xml:space="preserve"> Today Send</tspan></text>
    <text id="_99_999" data-name="99,999" class="cls-4" transform="translate(1744 217)"><tspan x="0" y="0">99,999</tspan></text>
    <rect id="Rectangle_59" data-name="Rectangle 59" class="cls-1" width="394" height="116" rx="23" transform="translate(1326 433)"/>
    <path id="Rectangle_59_-_Outline" data-name="Rectangle 59 - Outline" class="cls-2" d="M23,1A21.981,21.981,0,0,0,1,23V93a21.981,21.981,0,0,0,22,22H371a21.981,21.981,0,0,0,22-22V23A21.981,21.981,0,0,0,371,1H23m0-1H371a23,23,0,0,1,23,23V93a23,23,0,0,1-23,23H23A23,23,0,0,1,0,93V23A23,23,0,0,1,23,0Z" transform="translate(1326 433)"/>
    <rect id="Rectangle_60" data-name="Rectangle 60" class="cls-1" width="115" height="116" rx="27" transform="translate(1193 432)"/>
    <path id="Rectangle_60_-_Outline" data-name="Rectangle 60 - Outline" class="cls-2" d="M27,1A25.978,25.978,0,0,0,1,27V89a25.978,25.978,0,0,0,26,26H88a25.978,25.978,0,0,0,26-26V27A25.978,25.978,0,0,0,88,1H27m0-1H88a27,27,0,0,1,27,27V89a27,27,0,0,1-27,27H27A27,27,0,0,1,0,89V27A27,27,0,0,1,27,0Z" transform="translate(1193 432)"/>
    <rect id="Rectangle_67" data-name="Rectangle 67" class="cls-1" width="115" height="116" rx="27" transform="translate(1736 432)"/>
    <path id="Rectangle_67_-_Outline" data-name="Rectangle 67 - Outline" class="cls-2" d="M27,1A25.978,25.978,0,0,0,1,27V89a25.978,25.978,0,0,0,26,26H88a25.978,25.978,0,0,0,26-26V27A25.978,25.978,0,0,0,88,1H27m0-1H88a27,27,0,0,1,27,27V89a27,27,0,0,1-27,27H27A27,27,0,0,1,0,89V27A27,27,0,0,1,27,0Z" transform="translate(1736 432)"/>
    <g id="Group_6" data-name="Group 6" transform="translate(14 -31)">
      <text id="_0" data-name="0" class="cls-4" transform="translate(1772 533)"><tspan x="0" y="0">0</tspan></text>
      <text id="Pending_Refund_Orders" data-name="Pending Refund Orders" class="cls-3" transform="translate(1342 533)"><tspan x="0" y="0">Pending Refund Orders</tspan></text>
    </g>
    <rect id="Rectangle_57" data-name="Rectangle 57" class="cls-2" width="394" height="116" rx="23" transform="translate(1326 290)"/>
    <path id="Rectangle_57_-_Outline" data-name="Rectangle 57 - Outline" class="cls-2" d="M23,1A21.981,21.981,0,0,0,1,23V93a21.981,21.981,0,0,0,22,22H371a21.981,21.981,0,0,0,22-22V23A21.981,21.981,0,0,0,371,1H23m0-1H371a23,23,0,0,1,23,23V93a23,23,0,0,1-23,23H23A23,23,0,0,1,0,93V23A23,23,0,0,1,23,0Z" transform="translate(1326 290)"/>
    <rect id="Rectangle_58" data-name="Rectangle 58" class="cls-2" width="115" height="116" rx="27" transform="translate(1193 289)"/>
    <path id="Rectangle_58_-_Outline" data-name="Rectangle 58 - Outline" class="cls-2" d="M27,1A25.978,25.978,0,0,0,1,27V89a25.978,25.978,0,0,0,26,26H88a25.978,25.978,0,0,0,26-26V27A25.978,25.978,0,0,0,88,1H27m0-1H88a27,27,0,0,1,27,27V89a27,27,0,0,1-27,27H27A27,27,0,0,1,0,89V27A27,27,0,0,1,27,0Z" transform="translate(1193 289)"/>
    <rect id="Rectangle_66" data-name="Rectangle 66" class="cls-2" width="115" height="116" rx="27" transform="translate(1736 289)"/>
    <path id="Rectangle_66_-_Outline" data-name="Rectangle 66 - Outline" class="cls-2" d="M27,1A25.978,25.978,0,0,0,1,27V89a25.978,25.978,0,0,0,26,26H88a25.978,25.978,0,0,0,26-26V27A25.978,25.978,0,0,0,88,1H27m0-1H88a27,27,0,0,1,27,27V89a27,27,0,0,1-27,27H27A27,27,0,0,1,0,89V27A27,27,0,0,1,27,0Z" transform="translate(1736 289)"/>
    <g id="Group_5" data-name="Group 5" transform="translate(14 -32)">
      <text id="_0-2" data-name="0" class="cls-5" transform="translate(1772 390)"><tspan x="0" y="0">0</tspan></text>
      <text id="Today_Receive" data-name="Today Receive" class="cls-6" transform="translate(1342 390)"><tspan x="0" y="0">Today Receive</tspan></text>
    </g>
    <rect id="Rectangle_61" data-name="Rectangle 61" class="cls-2" width="394" height="116" rx="23" transform="translate(1326 575)"/>
    <path id="Rectangle_61_-_Outline" data-name="Rectangle 61 - Outline" class="cls-2" d="M23,1A21.981,21.981,0,0,0,1,23V93a21.981,21.981,0,0,0,22,22H371a21.981,21.981,0,0,0,22-22V23A21.981,21.981,0,0,0,371,1H23m0-1H371a23,23,0,0,1,23,23V93a23,23,0,0,1-23,23H23A23,23,0,0,1,0,93V23A23,23,0,0,1,23,0Z" transform="translate(1326 575)"/>
    <rect id="Pending_modification_icon_square" data-name="Pending modification icon square" class="cls-2" width="115" height="116" rx="27" transform="translate(1193 574)"/>
    <path id="Pending_modification_icon_square_-_Outline" data-name="Pending modification icon square - Outline" class="cls-2" d="M27,1A25.978,25.978,0,0,0,1,27V89a25.978,25.978,0,0,0,26,26H88a25.978,25.978,0,0,0,26-26V27A25.978,25.978,0,0,0,88,1H27m0-1H88a27,27,0,0,1,27,27V89a27,27,0,0,1-27,27H27A27,27,0,0,1,0,89V27A27,27,0,0,1,27,0Z" transform="translate(1193 574)"/>
    <rect id="Pending_Modification_nb_case" data-name="Pending Modification nb case" class="cls-2" width="115" height="116" rx="27" transform="translate(1736 574)"/>
    <path id="Pending_Modification_nb_case_-_Outline" data-name="Pending Modification nb case - Outline" class="cls-2" d="M27,1A25.978,25.978,0,0,0,1,27V89a25.978,25.978,0,0,0,26,26H88a25.978,25.978,0,0,0,26-26V27A25.978,25.978,0,0,0,88,1H27m0-1H88a27,27,0,0,1,27,27V89a27,27,0,0,1-27,27H27A27,27,0,0,1,0,89V27A27,27,0,0,1,27,0Z" transform="translate(1736 574)"/>
    <g id="Pending_Modification" data-name="Pending Modification" transform="translate(14 -31)">
      <text id="_0-3" data-name="0" class="cls-5" transform="translate(1772 678)"><tspan x="0" y="0">0</tspan></text>
      <text id="Pending_Modifications" data-name="Pending Modifications" class="cls-6" transform="translate(1342 675)"><tspan x="0" y="0">Pending Modifications</tspan></text>
    </g>
    <g id="Component_36_1" data-name="Component 36 – 1" transform="translate(1206 163)">
      <rect id="Rectangle_346" data-name="Rectangle 346" class="cls-7" width="90" height="85"/>
      <g id="Today_Send_Icon_" data-name="Today Send Icon ">
        <path id="Path_22" data-name="Path 22" class="cls-8" d="M23.093,10.753c0-.243.044-.508.044-.75a2.9,2.9,0,1,0-5.8.022v1.854c-.177.066-.331.132-.485.2A8.616,8.616,0,0,0,20.092,28.6a2.8,2.8,0,0,1,2.8,1.92,2.733,2.733,0,0,1-.971,3.089,2.691,2.691,0,0,1-2.78.309,2.806,2.806,0,0,1-1.677-2.6,2.845,2.845,0,0,0-3.178-2.8,2.9,2.9,0,0,0-2.626,3.222c.2,3.332,1.7,5.759,4.325,7.039a2.162,2.162,0,0,1,1.412,2.56,2.686,2.686,0,0,0,.706,2.008,2.925,2.925,0,0,0,2.14.949h.044a2.9,2.9,0,0,0,2.891-2.957V39.506l.419-.177a8.611,8.611,0,0,0,2.847-13.924,8.374,8.374,0,0,0-6.09-2.626,2.767,2.767,0,0,1-2.869-2.8,2.845,2.845,0,0,1,.9-2.03A2.777,2.777,0,0,1,22.961,19.4l.066.53a4.571,4.571,0,0,0,.154.9,2.909,2.909,0,0,0,5.693-.861A8.409,8.409,0,0,0,24.7,12.629a5.224,5.224,0,0,0-.794-.375c-.265-.11-.662-.265-.728-.4a2.045,2.045,0,0,1-.044-1.059Z" transform="translate(24.174 16.853)"/>
        <path id="Path_23" data-name="Path 23" class="cls-8" d="M24.021,21.415a1.833,1.833,0,0,0,.6-.066,3.813,3.813,0,0,0,1.809-1.015c2.67-2.626,5.362-5.34,7.966-7.944L36.8,9.985v5.3a2.9,2.9,0,0,0,1.611,2.692,2.732,2.732,0,0,0,2.913-.177,3.156,3.156,0,0,0,1.3-2.825V3.078A2.881,2.881,0,0,0,40.041.055,12.807,12.807,0,0,0,37.989.011H27.353a3.06,3.06,0,0,0-2.229.9A2.844,2.844,0,0,0,24.33,2.99,2.949,2.949,0,0,0,27.4,5.836h5.252L25.433,13.03c-1.147,1.147-2.273,2.273-3.4,3.42a2.957,2.957,0,0,0-.53,3.354,2.721,2.721,0,0,0,2.449,1.567Z" transform="translate(35.714 8.287)"/>
        <path id="Path_21" data-name="Path 21" class="cls-8" d="M67.786,32.372a2.662,2.662,0,0,0-3.156-.883,2.981,2.981,0,0,0-1.964,2.8c-.044.441-.066.883-.11,1.346a40.924,40.924,0,0,1-.485,4.347A28.415,28.415,0,0,1,27.448,61.809a30.332,30.332,0,0,1-4.027-1.346A28.239,28.239,0,0,1,6.2,30.209c1.412-9.577,6.6-16.771,15.38-21.36a27.149,27.149,0,0,1,12.534-3,3.164,3.164,0,0,0,2.273-.9A2.923,2.923,0,0,0,34.068,0h0a33.516,33.516,0,0,0-10,1.545A34.269,34.269,0,0,0,1.277,43.493C5.536,58.675,19.659,68.451,37.334,68.451h.287c4.347-.022,11.519-2.317,17.786-7.348A33.544,33.544,0,0,0,68.448,34.38a3.6,3.6,0,0,0-.684-2.008Z" transform="translate(10.131 8.298)"/>
      </g>
    </g>
    <g id="Component_37_1" data-name="Component 37 – 1" transform="translate(1205 300.43)">
      <rect id="Rectangle_347" data-name="Rectangle 347" class="cls-7" width="91" height="80" transform="translate(0 3.57)"/>
      <g id="received_for_today_icon_" data-name="received for today icon " transform="translate(12.228 12.971)">
        <g id="Today_Receive_Icon_" data-name="Today Receive Icon ">
          <path id="Path_18" data-name="Path 18" class="cls-9" d="M66.364,31.7a2.614,2.614,0,0,0-3.089-.864,2.918,2.918,0,0,0-1.923,2.744c-.043.432-.065.864-.108,1.318a40.066,40.066,0,0,1-.475,4.256A27.465,27.465,0,0,1,48.433,57,27.759,27.759,0,0,1,6.068,29.586c1.383-9.376,6.46-16.419,15.079-20.912A26.58,26.58,0,0,1,33.419,5.735a3.1,3.1,0,0,0,2.225-.886A2.862,2.862,0,0,0,33.375.01h0a32.813,32.813,0,0,0-9.786,1.512A33.528,33.528,0,0,0,1.251,42.569C5.42,57.433,19.247,67,36.551,67h.281c4.256-.022,11.277-2.268,17.413-7.194A32.84,32.84,0,0,0,67.012,33.647a3.528,3.528,0,0,0-.67-1.966Z" transform="translate(-0.002 -0.01)"/>
          <path id="Path_19" data-name="Path 19" class="cls-9" d="M22.853,10.686c0-.238.043-.5.043-.735a2.841,2.841,0,1,0-5.682.022v1.815c-.173.065-.324.13-.475.194a8.435,8.435,0,0,0,3.176,16.181,2.745,2.745,0,0,1,2.744,1.88,2.676,2.676,0,0,1-.951,3.025,2.635,2.635,0,0,1-2.722.3,2.747,2.747,0,0,1-1.642-2.549,2.786,2.786,0,0,0-3.111-2.744,2.839,2.839,0,0,0-2.571,3.154c.194,3.262,1.663,5.639,4.234,6.892a2.117,2.117,0,0,1,1.383,2.506,2.63,2.63,0,0,0,.691,1.966,2.864,2.864,0,0,0,2.1.929h.043a2.841,2.841,0,0,0,2.83-2.895V38.814c.151-.065.281-.108.41-.173a8.43,8.43,0,0,0,2.787-13.632,8.2,8.2,0,0,0-5.963-2.571,2.709,2.709,0,0,1-2.808-2.744,2.785,2.785,0,0,1,.886-1.988,2.719,2.719,0,0,1,4.472,1.426,4.249,4.249,0,0,1,.065.518,4.475,4.475,0,0,0,.151.886,2.848,2.848,0,0,0,5.574-.843A8.233,8.233,0,0,0,24.43,12.5a5.115,5.115,0,0,0-.778-.367c-.259-.108-.648-.259-.713-.389a2,2,0,0,1-.043-1.037Z" transform="translate(13.502 8.217)"/>
          <path id="Path_20" data-name="Path 20" class="cls-9" d="M24.212,20.95h3.457c2.441,0,4.861-.022,7.3-.022H35.9a3.035,3.035,0,0,0,2.744-1.275,2.675,2.675,0,0,0,.173-2.852,2.8,2.8,0,0,0-2.636-1.577H31l2.4-2.4c2.549-2.549,5.163-5.163,7.734-7.756A4.038,4.038,0,0,0,42.121,3.3,2.645,2.645,0,0,0,40.652.319a2.9,2.9,0,0,0-3.284.518c-1.123,1.1-2.225,2.2-3.327,3.305l-7.086,7.086V6.087a2.9,2.9,0,0,0-2.787-3,2.839,2.839,0,0,0-2.031.778,3.084,3.084,0,0,0-.886,2.182V16.457c0,.648-.022,1.339.043,2.009a2.832,2.832,0,0,0,2.938,2.549Z" transform="translate(35.292 -12.995)"/>
        </g>
      </g>
    </g>
    <g id="Pending_Refund_Icon" data-name="Pending Refund Icon" transform="translate(1202.932 427.418) rotate(7)">
      <path id="Path_229" data-name="Path 229" class="cls-7" d="M0,0H79V77H0Z" transform="matrix(0.616, -0.788, 0.788, 0.616, 0, 62.253)"/>
      <path id="Path_24" data-name="Path 24" class="cls-8" d="M8.239,41.235v2.847a3.341,3.341,0,0,1-6.614.685A3.485,3.485,0,0,1,1.56,44.1V34.064a3.307,3.307,0,0,1,3.318-3.318h13.4a3.339,3.339,0,0,1-.021,6.679h-4.2l-.043.064a.587.587,0,0,1,.15.086,25.75,25.75,0,0,0,13.079,6.144,26.139,26.139,0,0,0,22.969-7.192,25.913,25.913,0,0,0,7.749-14.749,24.71,24.71,0,0,0,.364-4.367,3.33,3.33,0,0,1,6.657-.193,28.1,28.1,0,0,1-.257,4.452A33.356,33.356,0,0,1,38.271,50.1a32.525,32.525,0,0,1-9.975.492,33.074,33.074,0,0,1-19.865-9.2c-.043-.043-.107-.086-.193-.171Z" transform="translate(45.946 21.372) rotate(47)"/>
      <path id="Path_25" data-name="Path 25" class="cls-8" d="M51.02,13.357a2.386,2.386,0,0,0-.214-.193A26.378,26.378,0,0,0,37.641,7.02,26.721,26.721,0,0,0,7.33,27.506a28.476,28.476,0,0,0-.664,5.865,3.346,3.346,0,0,1-3,3.339,3.284,3.284,0,0,1-3.6-2.633,8.836,8.836,0,0,1-.064-1.841A33.4,33.4,0,0,1,26.424.727,33.685,33.685,0,0,1,36.036.106,32.908,32.908,0,0,1,56.564,9.375l.193.193V6.7a3.343,3.343,0,0,1,6.614-.706,4.244,4.244,0,0,1,.064.749v9.89a3.32,3.32,0,0,1-3.4,3.4H46.76a3.344,3.344,0,0,1-.706-6.614,3.543,3.543,0,0,1,.685-.064H51.02Z" transform="translate(56.431 9.149) rotate(47)"/>
    </g>
    <path id="Path_26" data-name="Path 26" class="cls-8" d="M24.293,37.671a3.362,3.362,0,1,1-6.721.171H14.189a3.342,3.342,0,0,1-.942-6.529,3.781,3.781,0,0,1,1.113-.15h8.22a1.659,1.659,0,1,0,.021-3.318h-3.6A8.349,8.349,0,0,1,17.4,11.363a.5.5,0,0,0,.171-.043,3.37,3.37,0,0,1,1.22-2.74,3.32,3.32,0,0,1,2.183-.771,3.4,3.4,0,0,1,3.318,3.339h3.232a3.343,3.343,0,0,1,.278,6.679c-.664.021-1.327,0-2.012,0H19.262a1.662,1.662,0,0,0-1.242,2.783,1.591,1.591,0,0,0,1.242.535h3.275a8.352,8.352,0,0,1,1.948,16.483c-.064,0-.15.043-.214.043Z" transform="translate(1229.686 465.528)"/>
    <g id="Pending_Modifications_icon" data-name="Pending Modifications icon" transform="translate(1212 589)">
      <rect id="Rectangle_348" data-name="Rectangle 348" class="cls-7" width="80" height="80"/>
      <g id="Component_3_2" data-name="Component 3 – 2" transform="translate(5.228 7.656)">
        <path id="Path_27" data-name="Path 27" class="cls-9" d="M37.55,66.976H29.2A8.217,8.217,0,0,0,28,66.5a33.475,33.475,0,0,1,2-66.317A33.584,33.584,0,0,1,64.6,21.634c.923,2.49,1.46,5.153,2.19,7.729v8.373A9.745,9.745,0,0,0,66.3,39.2c-2.447,12.71-9.79,21.3-21.812,25.891-2.233.859-4.616,1.288-6.934,1.932Zm-4.272-5.689a27.643,27.643,0,1,0-.021,0Z" transform="translate(0.001 -0.006)"/>
        <path id="Path_28" data-name="Path 28" class="cls-10" d="M10.866,15.868a2.976,2.976,0,0,1-2.924,2.858A3,3,0,0,1,5.15,15.868,2.976,2.976,0,0,1,8.074,13.01,3,3,0,0,1,10.866,15.868Z" transform="translate(7.002 17.656)"/>
        <path id="Path_29" data-name="Path 29" class="cls-10" d="M15.809,13.01a2.974,2.974,0,0,1,2.836,2.934,3,3,0,0,1-2.869,2.781,2.974,2.974,0,0,1-2.836-2.934,3,3,0,0,1,2.869-2.781Z" transform="translate(17.582 17.656)"/>
        <path id="Path_30" data-name="Path 30" class="cls-10" d="M26.435,15.912a2.974,2.974,0,0,1-2.967,2.8,2.984,2.984,0,0,1-2.737-2.9,2.974,2.974,0,0,1,2.967-2.8,2.984,2.984,0,0,1,2.737,2.9Z" transform="translate(28.165 17.649)"/>
      </g>
    </g>
  </g>
</svg>
