<?xml version="1.0" encoding="UTF-8"?>
<svg id="Layer_1" data-name="Layer 1" xmlns="http://www.w3.org/2000/svg" viewBox="0 0 31.03 31.02">
  <defs>
    <style>
      .cls-1 {
        fill: #41af52;
        stroke-width: 0px;
      }
    </style>
  </defs>
  <path class="cls-1" d="M30.72,14.68c-.31-.44-.89-.6-1.43-.4-.53.19-.84.63-.89,1.27-.02.2-.03.4-.05.61-.05.65-.1,1.33-.22,1.97-.65,3.37-2.74,6.38-5.71,8.26-2.99,1.89-6.63,2.48-9.98,1.63-6.45-1.65-10.59-7.81-9.63-14.32.64-4.34,2.99-7.6,6.98-9.68,1.71-.89,3.62-1.35,5.68-1.36.41,0,.77-.15,1.03-.41.24-.24.37-.58.37-.94,0-.75-.6-1.3-1.42-1.3h0c-1.53,0-3.06.24-4.53.7C7.02,1.91,3.82,4.55,1.89,8.12-.05,11.69-.51,15.81.58,19.71c1.93,6.88,8.33,11.31,16.34,11.31.04,0,.09,0,.13,0h0c1.97-.01,5.22-1.05,8.06-3.33,3.84-3.08,5.83-7.16,5.91-12.11,0-.29-.11-.63-.31-.91Z"/>
  <path class="cls-1" d="M16.83,8.76c0-.11.02-.23.02-.34-.01-.73-.59-1.31-1.3-1.32-.74,0-1.32.58-1.33,1.33,0,.23,0,.46,0,.7v.14c-.08.03-.15.06-.22.09-1.87.8-2.81,2.93-2.15,4.85.53,1.54,1.98,2.6,3.62,2.64.63.01,1.09.33,1.27.87.17.52,0,1.08-.44,1.4-.39.28-.81.33-1.26.14-.46-.2-.71-.58-.76-1.18-.07-.82-.64-1.33-1.44-1.27-.73.06-1.24.68-1.19,1.46.09,1.51.77,2.61,1.96,3.19.59.29.68.59.64,1.16-.02.34.09.66.32.91.25.27.6.43.97.43,0,0,.01,0,.02,0,.73,0,1.3-.58,1.31-1.34,0-.23,0-.46,0-.69v-.15c.07-.03.13-.05.19-.08,1.19-.5,2.05-1.55,2.31-2.82.26-1.26-.12-2.56-1.02-3.49-.74-.77-1.67-1.17-2.76-1.19-.76-.02-1.32-.56-1.3-1.27,0-.35.16-.68.41-.92.25-.23.58-.34.93-.32.56.04,1.04.45,1.14.98.02.08.02.16.03.24.01.13.03.27.07.41.17.63.79,1.01,1.47.92.64-.09,1.12-.66,1.11-1.31-.03-1.45-.67-2.57-1.89-3.33-.11-.07-.24-.12-.36-.17-.12-.05-.3-.12-.33-.18-.06-.1-.04-.3-.02-.48Z"/>
  <path class="cls-1" d="M22.62,9.71h1.6c1.13,0,2.25-.01,3.38-.01.14,0,.28,0,.43,0,.38,0,.92-.06,1.27-.59.28-.42.31-.88.08-1.32-.25-.48-.67-.73-1.22-.73-.56,0-1.12,0-1.68,0h-.72s1.11-1.11,1.11-1.11c1.18-1.18,2.39-2.39,3.58-3.59.22-.23.39-.53.46-.82.13-.56-.15-1.12-.68-1.38-.5-.25-1.12-.15-1.52.24-.52.51-1.03,1.02-1.54,1.53l-3.28,3.28v-1.87c0-.17,0-.34,0-.51-.01-.78-.57-1.38-1.29-1.39-.36,0-.7.12-.94.36-.26.25-.4.61-.41,1.01,0,1.12,0,2.24,0,3.35v1.12c0,.12,0,.23,0,.35,0,.3-.01.62.02.93.08.7.63,1.18,1.36,1.18Z"/>
</svg>