<?xml version="1.0" encoding="UTF-8"?>
<svg id="Layer_1" data-name="Layer 1" xmlns="http://www.w3.org/2000/svg" viewBox="0 0 31.03 31.02">
  <defs>
    <style>
      .cls-1 {
        fill: #fff;
        stroke-width: 0px;
      }
    </style>
  </defs>
  <path class="cls-1" d="M30.72,14.67c-.31-.44-.88-.6-1.43-.4-.53.19-.84.63-.89,1.27-.02.2-.03.4-.05.61-.05.65-.1,1.33-.22,1.97-.66,3.37-2.74,6.38-5.71,8.26-2.99,1.89-6.63,2.48-9.98,1.63-6.45-1.65-10.59-7.81-9.63-14.32.64-4.34,2.99-7.6,6.97-9.68,1.71-.89,3.62-1.35,5.68-1.36.41,0,.77-.15,1.03-.41.24-.24.37-.58.37-.94C16.86.55,16.26,0,15.44,0h0C13.91,0,12.38.24,10.91.7,7.02,1.91,3.82,4.54,1.89,8.11-.05,11.68-.51,15.8.58,19.71c1.93,6.88,8.33,11.31,16.34,11.31h.13c1.97-.01,5.22-1.05,8.06-3.33,3.84-3.08,5.83-7.16,5.91-12.11,0-.29-.11-.63-.31-.91h0Z"/>
  <path class="cls-1" d="M16.83,8.75c0-.11.02-.23.02-.34-.01-.73-.59-1.31-1.3-1.32-.74,0-1.32.58-1.33,1.33v.84c-.08.03-.15.06-.22.09-1.87.8-2.81,2.93-2.15,4.85.53,1.54,1.98,2.6,3.62,2.64.63.01,1.09.33,1.27.87.17.52,0,1.08-.44,1.4-.39.28-.81.33-1.26.14-.46-.2-.71-.58-.76-1.18-.07-.82-.64-1.33-1.44-1.27-.73.06-1.24.68-1.19,1.46.09,1.51.77,2.61,1.96,3.19.59.29.68.59.64,1.16-.02.34.09.66.32.91.25.27.6.43.97.43h.02c.73,0,1.3-.58,1.31-1.34v-.83l.19-.08c1.19-.5,2.05-1.55,2.31-2.82.26-1.26-.12-2.56-1.02-3.49-.74-.77-1.67-1.17-2.76-1.19-.76-.02-1.32-.56-1.3-1.27,0-.35.16-.68.41-.92.25-.23.58-.34.93-.32.56.04,1.04.45,1.14.98l.03.24c.01.13.03.27.07.41.17.63.79,1.01,1.47.92.64-.09,1.12-.66,1.11-1.31-.03-1.45-.67-2.57-1.89-3.33-.11-.07-.24-.12-.36-.17s-.3-.12-.33-.18c-.06-.1-.04-.3-.02-.48l-.02-.02Z"/>
  <path class="cls-1" d="M29.63,0c-.09,0-.18,0-.27.03-.29.06-.6.24-.82.46-1.21,1.19-2.43,2.42-3.61,3.6l-1.09,1.09v-2.4c0-.55-.26-.97-.73-1.22-.44-.23-.9-.2-1.32.08-.53.36-.59.9-.59,1.28v5.39c0,.74.47,1.29,1.17,1.37.31.04.63.03.93.02h4.82c.4,0,.76-.15,1.01-.41.24-.25.37-.58.36-.94-.01-.73-.61-1.28-1.39-1.29h-2.38l3.27-3.26c.52-.52,1.03-1.03,1.54-1.55.39-.4.49-1.02.24-1.52-.22-.45-.65-.71-1.11-.71l-.03-.02Z"/>
</svg>