<?xml version="1.0" encoding="UTF-8"?>
<svg id="Layer_1" data-name="Layer 1" xmlns="http://www.w3.org/2000/svg" viewBox="0 0 26.87 26.87">
  <defs>
    <style>
      .cls-1 {
        fill: #41af52;
        stroke-width: 0px;
      }
    </style>
  </defs>
  <path class="cls-1" d="M3.85,5.05c0,.66.54,1.2,1.2,1.2h19.17c.66,0,1.2.54,1.2,1.2v16.77c0,.66-.54,1.2-1.2,1.2h-5.99c-.66,0-1.2-.54-1.2-1.2s.54-1.2,1.2-1.2h4.79v-14.38H5.05c-.41,0-.81-.08-1.2-.22v13.4c0,.66.54,1.2,1.2,1.2h5.99c.66,0,1.2-.54,1.2-1.2v-5.49l-1.55,1.55c-.48.46-1.23.45-1.69-.03-.45-.46-.45-1.2,0-1.66l3.59-3.59c.11-.11.24-.2.39-.26.29-.12.62-.12.92,0,.15.06.28.15.39.26l3.59,3.59c.46.48.45,1.23-.03,1.69-.46.45-1.2.45-1.66,0l-1.55-1.55v5.49c0,1.99-1.61,3.59-3.59,3.59h-5.99c-1.99,0-3.59-1.61-3.59-3.59V5.05c0-1.99,1.61-3.59,3.59-3.59h19.17c.66,0,1.2.54,1.2,1.2s-.54,1.2-1.2,1.2H5.05c-.66,0-1.2.54-1.2,1.2Z"/>
</svg>